<svg width="1139" height="737" viewBox="0 0 1139 737" fill="none" xmlns="http://www.w3.org/2000/svg">
<path d="M1037.79 731.733V554.494H1068.56V653.335L1068.34 649.516C1071.78 643.376 1076.65 638.434 1082.94 634.69C1089.23 630.796 1096.94 628.849 1106.08 628.849C1115.36 628.849 1123.07 631.62 1129.21 637.161C1135.5 642.552 1138.72 649.591 1138.87 658.277V731.733H1107.43V669.958C1107.28 665.615 1106.08 662.17 1103.83 659.625C1101.73 656.929 1098.14 655.581 1093.05 655.581C1088.26 655.581 1084.06 657.154 1080.47 660.298C1076.87 663.443 1074.1 667.711 1072.16 673.103C1070.21 678.494 1069.24 684.709 1069.24 691.748V731.733H1037.79Z" fill="#334155"/>
<path d="M1013.63 722.972C1009.29 726.416 1003.82 729.187 997.23 731.283C990.791 733.38 984.426 734.428 978.136 734.428C966.904 734.428 957.095 732.406 948.708 728.363C940.472 724.17 934.032 718.254 929.39 710.616C924.897 702.829 922.65 693.469 922.65 682.537C922.65 671.604 925.121 662.319 930.063 654.682C935.006 646.894 941.445 640.979 949.382 636.935C957.469 632.892 965.931 630.87 974.766 630.87C983.602 630.87 991.24 632.068 997.679 634.464C1004.27 636.86 1009.88 640.005 1014.53 643.899L999.252 664.116C997.155 662.469 994.235 660.822 990.491 659.174C986.897 657.377 982.629 656.479 977.687 656.479C973.344 656.479 969.375 657.602 965.781 659.848C962.187 662.095 959.341 665.165 957.245 669.059C955.148 672.952 954.1 677.445 954.1 682.537C954.1 687.329 955.223 691.747 957.469 695.79C959.716 699.834 962.786 703.054 966.679 705.45C970.723 707.696 975.44 708.819 980.832 708.819C984.276 708.819 987.421 708.37 990.266 707.472C993.262 706.423 995.807 705.001 997.904 703.203L1013.63 722.972Z" fill="#334155"/>
<path d="M851.095 590.437H882.545V633.118H906.356V657.603H882.545V731.734H851.095V657.603H835.82V633.118H851.095V590.437Z" fill="#334155"/>
<path d="M778.051 633.567H809.5V731.734H778.051V633.567ZM777.377 598.748C777.377 594.106 779.174 590.287 782.768 587.292C786.512 584.296 790.481 582.799 794.674 582.799C798.867 582.799 802.686 584.296 806.131 587.292C809.725 590.287 811.522 594.106 811.522 598.748C811.522 603.391 809.725 607.209 806.131 610.205C802.686 613.05 798.867 614.473 794.674 614.473C790.481 614.473 786.512 613.05 782.768 610.205C779.174 607.209 777.377 603.391 777.377 598.748Z" fill="#334155"/>
<path d="M740.623 566.4V731.734H708.05V664.567H634.144V731.734H601.572V566.4H634.144V633.118H708.05V566.4H740.623Z" fill="#334155"/>
<path d="M400.73 731.733V554.494H432.179V731.733H400.73ZM457.114 665.016L501.592 731.733H464.976L436.447 682.987L457.114 665.016ZM422.744 704.552L419.6 674.675L478.904 631.096L497.998 647.943L422.744 704.552Z" fill="#334155"/>
<path d="M336.892 633.567H368.341V731.734H336.892V633.567ZM336.218 598.748C336.218 594.106 338.015 590.287 341.609 587.292C345.353 584.296 349.322 582.799 353.515 582.799C357.708 582.799 361.527 584.296 364.972 587.292C368.566 590.287 370.363 594.106 370.363 598.748C370.363 603.391 368.566 607.209 364.972 610.205C361.527 613.05 357.708 614.473 353.515 614.473C349.322 614.473 345.353 613.05 341.609 610.205C338.015 607.209 336.218 603.391 336.218 598.748Z" fill="#334155"/>
<path d="M237.379 736.452C228.544 736.452 221.131 733.757 215.14 728.365C209.15 722.824 206.005 715.711 205.706 707.025V633.568H237.155V695.344C237.454 699.687 238.578 703.206 240.524 705.902C242.471 708.448 245.766 709.721 250.408 709.721C255.051 709.721 259.02 708.148 262.314 705.003C265.759 701.858 268.379 697.59 270.177 692.199C272.123 686.658 273.097 680.443 273.097 673.554V633.568H304.546V731.735H276.017L273.546 713.764L273.995 715.786C271.749 719.829 268.904 723.423 265.459 726.568C262.015 729.713 257.896 732.109 253.104 733.757C248.462 735.554 243.22 736.452 237.379 736.452Z" fill="#334155"/>
<path d="M127.177 699.834H178.395V731.733H84.4961L127.177 699.834ZM0.256958 649.291C0.256958 637.909 2.42846 627.127 6.77145 616.943C11.1144 606.76 17.1048 597.774 24.7425 589.987C32.5299 582.049 41.5154 575.834 51.699 571.342C61.8825 566.849 72.8149 564.603 84.4961 564.603C96.0275 564.603 106.885 566.849 117.069 571.342C127.252 575.834 136.238 582.049 144.025 589.987C151.962 597.774 158.102 606.76 162.445 616.943C166.938 627.127 169.184 637.909 169.184 649.291C169.184 660.972 166.938 671.904 162.445 682.088C158.102 692.272 151.962 701.257 144.025 709.044C136.238 716.682 127.252 722.673 117.069 727.016C106.885 731.359 96.0275 733.53 84.4961 733.53C72.8149 733.53 61.8825 731.359 51.699 727.016C41.5154 722.673 32.5299 716.682 24.7425 709.044C17.1048 701.257 11.1144 692.272 6.77145 682.088C2.42846 671.904 0.256958 660.972 0.256958 649.291ZM33.9526 649.291C33.9526 656.479 35.2255 663.293 37.7714 669.733C40.4671 676.023 44.1362 681.639 48.7787 686.581C53.5709 691.373 59.0371 695.117 65.1772 697.813C71.4671 700.508 78.2811 701.856 85.6193 701.856C92.6579 701.856 99.1724 700.508 105.163 697.813C111.303 695.117 116.619 691.373 121.112 686.581C125.605 681.788 129.124 676.247 131.67 669.958C134.216 663.518 135.489 656.629 135.489 649.291C135.489 642.103 134.141 635.363 131.445 629.074C128.899 622.634 125.305 617.018 120.663 612.226C116.17 607.433 110.854 603.689 104.713 600.994C98.5734 598.298 91.9091 596.95 84.7207 596.95C77.5323 596.95 70.868 598.298 64.728 600.994C58.5879 603.689 53.1966 607.433 48.554 612.226C43.9115 617.018 40.3173 622.634 37.7714 629.074C35.2255 635.363 33.9526 642.103 33.9526 649.291Z" fill="#334155"/>
<path fill-rule="evenodd" clip-rule="evenodd" d="M569.594 414.317C569.697 414.317 569.8 414.316 569.904 414.316H776.204V207.32L776.204 207.159C776.204 92.7481 683.456 0 569.045 0C454.635 0 361.887 92.7481 361.887 207.159C361.887 321.569 454.635 414.318 569.045 414.318C569.228 414.318 569.411 414.317 569.594 414.317ZM711.111 207.164C711.111 128.709 647.514 65.1119 569.059 65.1119C490.604 65.1119 427.007 128.709 427.007 207.164C427.007 285.619 490.604 349.215 569.059 349.215C647.514 349.215 711.111 285.619 711.111 207.164ZM490.088 288.894C474.329 273.669 463.301 254.217 458.33 232.875V232.861C481.74 230.219 501.854 234.807 516.685 246.668C532.168 259.041 544.427 281.414 547.169 318.703C525.669 314.47 505.848 304.119 490.088 288.894ZM590.949 318.703C593.691 281.414 605.95 259.055 621.434 246.654V246.668C636.264 234.807 656.378 230.219 679.788 232.861C674.82 254.205 663.793 273.66 648.033 288.888C632.273 304.116 612.451 314.469 590.949 318.703ZM496.542 119.651C516.932 102.759 542.581 93.5176 569.059 93.5223C596.152 93.5171 622.355 103.192 642.945 120.801C663.534 138.411 677.155 162.797 681.351 189.563L649.958 183.285L646.875 182.546C639.716 180.515 632.727 176.537 625.056 171.352L615.936 165.031C604.7 157.531 588.776 150.343 569.059 150.343C547.936 150.343 531.16 158.596 519.838 166.636L513.062 171.352C504.283 177.276 496.428 181.637 488.161 183.285L456.767 189.563L457.378 186.041C462.3 160.024 476.152 136.542 496.542 119.651Z" fill="#1D4ED8"/>
</svg>
