<svg width="52" height="17" viewBox="0 0 52 17" fill="none" xmlns="http://www.w3.org/2000/svg">
<g clip-path="url(#clip0_986_3182)">
<path d="M26.8931 5.41297C26.8635 7.77167 28.9778 9.08784 30.5705 9.87045C32.2069 10.6733 32.7565 11.1883 32.75 11.9064C32.7379 13.0052 31.4448 13.4902 30.2348 13.5091C28.1237 13.542 26.8962 12.9343 25.9204 12.4747L25.1599 16.063C26.1389 16.5179 27.9518 16.9146 29.8317 16.932C34.2446 16.932 37.1317 14.7355 37.1473 11.33C37.1646 7.0079 31.2185 6.76867 31.2591 4.83681C31.2731 4.25103 31.8275 3.62592 33.0421 3.46698C33.6434 3.38669 35.3031 3.32525 37.1849 4.19901L37.9234 0.727322C36.9115 0.35578 35.6109 7.62939e-06 33.9915 7.62939e-06C29.838 7.62939e-06 26.9167 2.22639 26.8931 5.41297ZM45.0202 0.299044C44.2144 0.299044 43.5354 0.772995 43.2323 1.50031L36.9287 16.677H41.3384L42.2159 14.2317H47.6044L48.1134 16.677H52L48.6084 0.299044H45.0202ZM45.6371 4.72335L46.9097 10.8735H43.4245L45.6371 4.72335ZM21.5467 0.29925L18.0708 16.6768H22.2729L25.7471 0.29884L21.5467 0.29925ZM15.3305 0.29925L10.9568 11.4465L9.18755 1.96812C8.97995 0.910021 8.16014 0.299044 7.24973 0.299044H0.100141L0 0.774633C1.46778 1.09579 3.13544 1.61378 4.14578 2.16802C4.76409 2.50659 4.94041 2.80255 5.14353 3.60708L8.49448 16.677H12.935L19.7429 0.299044L15.3305 0.29925Z" fill="url(#paint0_linear_986_3182)"/>
</g>
<defs>
<linearGradient id="paint0_linear_986_3182" x1="2390.65" y1="50.8976" x2="2440.07" y2="-1688.02" gradientUnits="userSpaceOnUse">
<stop stop-color="#222357"/>
<stop offset="1" stop-color="#254AA5"/>
</linearGradient>
<clipPath id="clip0_986_3182">
<rect width="52" height="17" fill="white"/>
</clipPath>
</defs>
</svg>
