<svg width="64" height="64" viewBox="0 0 64 64" fill="none" xmlns="http://www.w3.org/2000/svg">
<path fill-rule="evenodd" clip-rule="evenodd" d="M19.5488 9.60019C18.1216 9.60041 16.7354 10.0776 15.6106 10.956C14.4858 11.8345 13.6869 13.0636 13.3408 14.4482L9.72156 28.9282C8.27598 29.2233 6.97674 30.0087 6.04373 31.1517C5.11073 32.2946 4.60126 33.7248 4.60156 35.2002V44.8002C4.60156 46.4976 5.27585 48.1254 6.47608 49.3257C7.67631 50.5259 9.30418 51.2002 11.0016 51.2002H52.6016C54.299 51.2002 55.9268 50.5259 57.127 49.3257C58.3273 48.1254 59.0016 46.4976 59.0016 44.8002V35.2002C59.0019 33.7248 58.4924 32.2946 57.5594 31.1517C56.6264 30.0087 55.3271 29.2233 53.8816 28.9282L50.2656 14.4482C49.9192 13.0626 49.1193 11.8326 47.9932 10.9541C46.8671 10.0756 45.4794 9.59898 44.0512 9.60019H19.5488ZM11.0016 32.0002C11.3585 32.0001 11.7051 31.8807 11.9863 31.6609C12.2675 31.4412 12.4672 31.1337 12.5536 30.7874L16.4448 15.2226C16.6181 14.5306 17.0177 13.9164 17.5801 13.4775C18.1425 13.0386 18.8354 12.8002 19.5488 12.8002H44.0544C44.7677 12.8002 45.4606 13.0386 46.023 13.4775C46.5854 13.9164 46.985 14.5306 47.1584 15.2226L51.0496 30.7874C51.1359 31.1337 51.3356 31.4412 51.6168 31.6609C51.898 31.8807 52.2447 32.0001 52.6016 32.0002C53.4503 32.0002 54.2642 32.3373 54.8643 32.9375C55.4644 33.5376 55.8016 34.3515 55.8016 35.2002V44.8002C55.8016 45.6489 55.4644 46.4628 54.8643 47.0629C54.2642 47.6631 53.4503 48.0002 52.6016 48.0002H11.0016C10.1529 48.0002 9.33894 47.6631 8.73882 47.0629C8.1387 46.4628 7.80156 45.6489 7.80156 44.8002V35.2002C7.80156 34.3515 8.1387 33.5376 8.73882 32.9375C9.33894 32.3373 10.1529 32.0002 11.0016 32.0002Z" fill="#EECB41"/>
<path fill-rule="evenodd" clip-rule="evenodd" d="M47.8018 44.8002C48.4321 44.8002 49.0563 44.676 49.6386 44.4348C50.221 44.1936 50.7501 43.84 51.1959 43.3943C51.6416 42.9486 51.9952 42.4194 52.2364 41.8371C52.4776 41.2547 52.6018 40.6305 52.6018 40.0002C52.6018 39.3699 52.4776 38.7457 52.2364 38.1633C51.9952 37.5809 51.6416 37.0518 51.1959 36.6061C50.7501 36.1604 50.221 35.8068 49.6386 35.5656C49.0563 35.3243 48.4321 35.2002 47.8018 35.2002C46.5287 35.2002 45.3078 35.7059 44.4076 36.6061C43.5075 37.5063 43.0018 38.7272 43.0018 40.0002C43.0018 41.2732 43.5075 42.4941 44.4076 43.3943C45.3078 44.2945 46.5287 44.8002 47.8018 44.8002ZM47.8018 38.4002C48.2261 38.4002 48.6331 38.5688 48.9331 38.8688C49.2332 39.1689 49.4018 39.5758 49.4018 40.0002C49.4018 40.4245 49.2332 40.8315 48.9331 41.1316C48.6331 41.4316 48.2261 41.6002 47.8018 41.6002C47.3774 41.6002 46.9704 41.4316 46.6704 41.1316C46.3703 40.8315 46.2018 40.4245 46.2018 40.0002C46.2018 39.5758 46.3703 39.1689 46.6704 38.8688C46.9704 38.5688 47.3774 38.4002 47.8018 38.4002ZM15.8018 44.8002C16.4321 44.8002 17.0563 44.676 17.6386 44.4348C18.221 44.1936 18.7501 43.84 19.1959 43.3943C19.6416 42.9486 19.9952 42.4194 20.2364 41.8371C20.4776 41.2547 20.6018 40.6305 20.6018 40.0002C20.6018 39.3699 20.4776 38.7457 20.2364 38.1633C19.9952 37.5809 19.6416 37.0518 19.1959 36.6061C18.7501 36.1604 18.221 35.8068 17.6386 35.5656C17.0563 35.3243 16.4321 35.2002 15.8018 35.2002C14.5287 35.2002 13.3078 35.7059 12.4076 36.6061C11.5075 37.5063 11.0018 38.7272 11.0018 40.0002C11.0018 41.2732 11.5075 42.4941 12.4076 43.3943C13.3078 44.2945 14.5287 44.8002 15.8018 44.8002ZM15.8018 38.4002C16.2261 38.4002 16.6331 38.5688 16.9331 38.8688C17.2332 39.1689 17.4018 39.5758 17.4018 40.0002C17.4018 40.4245 17.2332 40.8315 16.9331 41.1316C16.6331 41.4316 16.2261 41.6002 15.8018 41.6002C15.3774 41.6002 14.9704 41.4316 14.6704 41.1316C14.3703 40.8315 14.2018 40.4245 14.2018 40.0002C14.2018 39.5758 14.3703 39.1689 14.6704 38.8688C14.9704 38.5688 15.3774 38.4002 15.8018 38.4002ZM17.4018 52.8002C17.4018 51.5272 16.896 50.3063 15.9959 49.4061C15.0957 48.5059 13.8748 48.0002 12.6018 48.0002C11.3287 48.0002 10.1078 48.5059 9.20765 49.4061C8.30747 50.3063 7.80176 51.5272 7.80176 52.8002V56.0002C7.80176 57.2732 8.30747 58.4941 9.20765 59.3943C10.1078 60.2945 11.3287 60.8002 12.6018 60.8002C13.8748 60.8002 15.0957 60.2945 15.9959 59.3943C16.896 58.4941 17.4018 57.2732 17.4018 56.0002V52.8002ZM11.0018 52.8002C11.0018 52.3758 11.1703 51.9689 11.4704 51.6688C11.7704 51.3688 12.1774 51.2002 12.6018 51.2002C13.0261 51.2002 13.4331 51.3688 13.7331 51.6688C14.0332 51.9689 14.2018 52.3758 14.2018 52.8002V56.0002C14.2018 56.4245 14.0332 56.8315 13.7331 57.1316C13.4331 57.4316 13.0261 57.6002 12.6018 57.6002C12.1774 57.6002 11.7704 57.4316 11.4704 57.1316C11.1703 56.8315 11.0018 56.4245 11.0018 56.0002V52.8002ZM55.8018 52.8002C55.8018 51.5272 55.296 50.3063 54.3959 49.4061C53.4957 48.5059 52.2748 48.0002 51.0018 48.0002C49.7287 48.0002 48.5078 48.5059 47.6076 49.4061C46.7075 50.3063 46.2018 51.5272 46.2018 52.8002V56.0002C46.2018 57.2732 46.7075 58.4941 47.6076 59.3943C48.5078 60.2945 49.7287 60.8002 51.0018 60.8002C52.2748 60.8002 53.4957 60.2945 54.3959 59.3943C55.296 58.4941 55.8018 57.2732 55.8018 56.0002V52.8002ZM49.4018 52.8002C49.4018 52.3758 49.5703 51.9689 49.8704 51.6688C50.1704 51.3688 50.5774 51.2002 51.0018 51.2002C51.4261 51.2002 51.8331 51.3688 52.1331 51.6688C52.4332 51.9689 52.6018 52.3758 52.6018 52.8002V56.0002C52.6018 56.4245 52.4332 56.8315 52.1331 57.1316C51.8331 57.4316 51.4261 57.6002 51.0018 57.6002C50.5774 57.6002 50.1704 57.4316 49.8704 57.1316C49.5703 56.8315 49.4018 56.4245 49.4018 56.0002V52.8002ZM40.2754 16.0002H23.3282C22.2538 16.0001 21.2105 16.3605 20.3652 17.0236C19.5198 17.6867 18.9215 18.6143 18.6658 19.6578L17.0978 26.0578C16.9246 26.7645 16.9143 27.5013 17.0678 28.2125C17.2212 28.9237 17.5343 29.5907 17.9835 30.1631C18.4326 30.7356 19.0059 31.1984 19.6602 31.5166C20.3145 31.8349 21.0326 32.0002 21.7602 32.0002H41.8434C42.5709 32.0002 43.289 31.8349 43.9433 31.5166C44.5976 31.1984 45.1709 30.7356 45.6201 30.1631C46.0692 29.5907 46.3823 28.9237 46.5357 28.2125C46.6892 27.5013 46.6789 26.7645 46.5058 26.0578L44.9378 19.6578C44.6819 18.6138 44.0831 17.6858 43.2371 17.0226C42.3912 16.3594 41.3503 15.9994 40.2754 16.0002ZM21.773 20.4194C21.8582 20.0714 22.0579 19.7621 22.3398 19.541C22.6218 19.3199 22.9699 19.1999 23.3282 19.2002H40.2754C40.6331 19.2006 40.9804 19.321 41.2617 19.542C41.5431 19.763 41.7422 20.0719 41.8274 20.4194L43.3954 26.8194C43.453 27.0548 43.4565 27.3002 43.4055 27.5371C43.3544 27.774 43.2503 27.9962 43.1008 28.187C42.9513 28.3778 42.7605 28.5321 42.5426 28.6383C42.3248 28.7445 42.0857 28.7999 41.8434 28.8002H21.7602C21.5175 28.8004 21.2781 28.7454 21.0598 28.6394C20.8416 28.5333 20.6503 28.3791 20.5005 28.1883C20.3507 27.9974 20.2462 27.775 20.195 27.5379C20.1438 27.3007 20.1472 27.055 20.205 26.8194L21.773 20.4194ZM36.6018 8.0002C36.6018 6.72716 36.096 5.50626 35.1959 4.60608C34.2957 3.70591 33.0748 3.2002 31.8018 3.2002C30.5287 3.2002 29.3078 3.70591 28.4076 4.60608C27.5075 5.50626 27.0018 6.72716 27.0018 8.0002C27.0018 9.27323 27.5075 10.4941 28.4076 11.3943C29.3078 12.2945 30.5287 12.8002 31.8018 12.8002C33.0748 12.8002 34.2957 12.2945 35.1959 11.3943C36.096 10.4941 36.6018 9.27323 36.6018 8.0002ZM30.2018 8.0002C30.2018 7.57585 30.3703 7.16888 30.6704 6.86882C30.9704 6.56877 31.3774 6.4002 31.8018 6.4002C32.2261 6.4002 32.6331 6.56877 32.9331 6.86882C33.2332 7.16888 33.4018 7.57585 33.4018 8.0002C33.4018 8.42454 33.2332 8.83151 32.9331 9.13157C32.6331 9.43162 32.2261 9.60019 31.8018 9.60019C31.3774 9.60019 30.9704 9.43162 30.6704 9.13157C30.3703 8.83151 30.2018 8.42454 30.2018 8.0002Z" fill="#EECB41"/>
<path d="M27.1667 25.8824V23.0588H28.3704V22.1176H25V23.0588H26.2037V25.8824H27.1667ZM33.8317 25.8824L34.5093 24.8635L35.1869 25.8824H36.3354L35.0835 24L36.3354 22.1176H35.1869L34.5093 23.1365L33.8317 22.1176H32.6832L33.935 24L32.6832 25.8824H33.8317ZM37.037 22.1176H38V25.8824H37.037V22.1176ZM25 20H38V20.9412H25V20ZM25 27.0588H38V28H25V27.0588ZM31.0588 25.1765L31.2995 25.8824H32.3145L31.0306 22.1176H29.6477L28.4609 25.8824H29.4685L29.6912 25.1765H31.0588ZM30.3481 23.0925L30.7378 24.2353H29.9878L30.3481 23.0925Z" fill="#EECB41"/>
<path d="M3.48134 6.00963C3.17284 5.70071 2.9997 5.28188 3 4.8453C3.0003 4.40872 3.17402 3.99013 3.48295 3.68163C3.79187 3.37313 4.21069 3.19999 4.64728 3.20029C5.08386 3.20059 5.50245 3.37431 5.81095 3.68323L60.1181 57.9904C60.4266 58.2989 60.6 58.7173 60.6 59.1536C60.6 59.5899 60.4266 60.0083 60.1181 60.3168C59.8096 60.6253 59.3912 60.7986 58.9549 60.7986C58.5187 60.7986 58.1002 60.6253 57.7917 60.3168L3.48134 6.00963Z" fill="#FF3B30"/>
</svg>
