<svg width="64" height="64" viewBox="0 0 64 64" fill="none" xmlns="http://www.w3.org/2000/svg">
<path d="M50 14C50 12.8954 49.1046 12 48 12H9C7.89543 12 7 12.8954 7 14V43C7 44.1046 7.89543 45 9 45H48C49.1046 45 50 44.1046 50 43V14ZM46.6923 39.7C46.6923 40.8046 45.7969 41.7 44.6923 41.7H12.3077C11.2031 41.7 10.3077 40.8046 10.3077 39.7V17.3C10.3077 16.1954 11.2031 15.3 12.3077 15.3H44.6923C45.7969 15.3 46.6923 16.1954 46.6923 17.3V39.7Z" fill="#38DE6F"/>
<path d="M55.32 20C54.3922 20 53.64 20.7522 53.64 21.68V46.6316C53.64 47.7362 52.7446 48.6316 51.64 48.6316H16.6842C15.754 48.6316 15 49.3856 15 50.3158C15 51.246 15.754 52 16.6842 52H55C56.1046 52 57 51.1046 57 50V21.68C57 20.7522 56.2478 20 55.32 20Z" fill="#38DE6F"/>
<path d="M29 37.0243C33.1354 37.0243 36.5 33.4308 36.5 29.0137C36.5 24.5966 33.1354 21.0031 29 21.0031C24.8646 21.0031 21.5 24.5965 21.5 29.0137C21.5 33.4309 24.8646 37.0243 29 37.0243ZM29 24.2758C31.2975 24.2758 33.1667 26.4013 33.1667 29.0137C33.1667 31.6262 31.2975 33.7516 29 33.7516C26.7025 33.7516 24.8333 31.6262 24.8333 29.0137C24.8333 26.4013 26.7025 24.2758 29 24.2758ZM14 21.6667C14 20.7462 14.7462 20 15.6667 20C16.5871 20 17.3333 20.7462 17.3333 21.6667V36.3333C17.3333 37.2538 16.5871 38 15.6667 38C14.7462 38 14 37.2538 14 36.3333V21.6667ZM40.6667 21.6667C40.6667 20.7462 41.4129 20 42.3333 20C43.2538 20 44 20.7462 44 21.6667V36.3333C44 37.2538 43.2538 38 42.3333 38C41.4129 38 40.6667 37.2538 40.6667 36.3333V21.6667Z" fill="#38DE6F"/>
<path d="M6.41783 9.43874C6.15004 9.17057 5.99974 8.80699 6 8.428C6.00026 8.04901 6.15106 7.68565 6.41922 7.41785C6.68739 7.15004 7.05095 6.99974 7.42993 7C7.80891 7.00026 8.17226 7.15106 8.44006 7.41923L55.5818 54.5622C55.8496 54.83 56 55.1933 56 55.572C56 55.9507 55.8495 56.3139 55.5818 56.5817C55.314 56.8495 54.9508 57 54.572 57C54.1933 57 53.8301 56.8496 53.5623 56.5817L6.41783 9.43874Z" fill="#FF3B30"/>
</svg>
