<svg width="64" height="64" viewBox="0 0 64 64" fill="none" xmlns="http://www.w3.org/2000/svg">
<path d="M54.9448 41.6166C55.5293 42.2063 55.5297 43.1566 54.9458 43.7468L44.2462 54.5616C43.4629 55.3533 42.1838 55.3526 41.4013 54.5602L37.5129 50.6224C36.9292 50.0313 36.9301 49.0805 37.5149 48.4904C38.1068 47.8933 39.0715 47.8919 39.665 48.4874L41.4041 50.2322C42.1866 51.0173 43.4584 51.0162 44.2396 50.2297L52.7958 41.6155C53.3882 41.0191 54.3531 41.0196 54.9448 41.6166ZM30.7107 17.1656C31.5469 17.1656 32.2247 17.8435 32.2247 18.6796V27.3864C32.2247 28.4909 33.1202 29.3864 34.2247 29.3864H39.7814C40.6251 29.3864 41.309 30.0703 41.309 30.914C41.309 31.7576 40.6251 32.4416 39.7814 32.4416H31.1966C30.0921 32.4416 29.1966 31.5461 29.1966 30.4416V18.6796C29.1966 17.8435 29.8745 17.1656 30.7107 17.1656ZM30.7107 50.7728C30.963 50.7728 31.2154 50.7648 31.4677 50.7489C31.4745 50.7485 31.4813 50.748 31.4881 50.7476C31.9562 50.7181 32.4142 50.8923 32.7443 51.2254L33.4254 51.9125C34.0586 52.5515 33.712 53.6264 32.8162 53.7086C32.1222 53.7723 31.4204 53.812 30.7107 53.8279C28.6289 53.8279 26.6259 53.5574 24.7018 53.0164C22.7777 52.4754 20.964 51.7036 19.2607 50.7011C17.5574 49.6987 16.0276 48.5052 14.6713 47.1208C13.3149 45.7365 12.1321 44.185 11.1227 42.4664C10.1134 40.7479 9.34845 38.9259 8.82799 37.0005C8.30754 35.0751 8.03154 33.0462 8 30.914C8 28.8135 8.26811 26.7926 8.80434 24.8513C9.34056 22.91 10.1055 21.0801 11.0991 19.3615C12.0927 17.643 13.2755 16.0995 14.6476 14.731C16.0197 13.3625 17.5574 12.1691 19.2607 11.1507C20.964 10.1323 22.7698 9.36052 24.6782 8.83541C26.5865 8.31029 28.5973 8.03182 30.7107 8C32.7925 8 34.7955 8.27051 36.7196 8.81154C38.6437 9.35256 40.4574 10.1243 42.1607 11.1268C43.864 12.1293 45.3938 13.3227 46.7501 14.7071C48.1065 16.0915 49.2893 17.643 50.2987 19.3615C51.308 21.0801 52.0729 22.902 52.5934 24.8274C53.1138 26.7529 53.3898 28.7817 53.4214 30.914C53.4214 31.5759 53.3886 32.2433 53.3232 32.9162C53.2974 33.1812 53.178 33.4277 52.9911 33.6174C52.0982 34.5236 50.2636 33.4962 50.3492 32.2269C50.3786 31.7906 50.3933 31.3529 50.3933 30.914C50.3933 29.084 50.1567 27.3257 49.6836 25.639C49.2104 23.9523 48.5481 22.3769 47.6964 20.913C46.8447 19.449 45.8196 18.1044 44.621 16.8792C43.4224 15.6539 42.0976 14.6196 40.6466 13.7762C39.1957 12.9329 37.6264 12.2645 35.9389 11.7713C34.2514 11.278 32.5086 11.0393 30.7107 11.0552C28.897 11.0552 27.1543 11.2939 25.4825 11.7713C23.8107 12.2486 22.2494 12.917 20.7984 13.7762C19.3475 14.6355 18.0148 15.6698 16.8004 16.8792C15.586 18.0885 14.5609 19.4252 13.725 20.8891C12.8891 22.3531 12.2267 23.9364 11.7378 25.639C11.2489 27.3416 11.0123 29.1 11.0281 30.914C11.0281 32.7439 11.2647 34.5022 11.7378 36.189C12.2109 37.8757 12.8733 39.451 13.725 40.915C14.5766 42.3789 15.6018 43.7235 16.8004 44.9488C17.999 46.174 19.3238 47.2084 20.7748 48.0517C22.2257 48.8951 23.795 49.5634 25.4825 50.0567C27.17 50.55 28.9128 50.7887 30.7107 50.7728Z" fill="#1D4ED8"/>
</svg>
