<svg width="64" height="63" viewBox="0 0 64 63" fill="none" xmlns="http://www.w3.org/2000/svg">
<path d="M31.999 42.0523H32.0202M31.999 26.392V34.2222M28.2346 13.9081L9.58939 44.6624C9.20523 45.3202 9.00204 46.0659 9.00002 46.8254C8.99799 47.5849 9.19722 48.3316 9.57787 48.9914C9.95853 49.6512 10.5074 50.2011 11.1698 50.5864C11.8322 50.9717 12.5852 51.1789 13.3538 51.1875H50.6443C51.4132 51.1797 52.1667 50.9729 52.8296 50.5878C53.4925 50.2027 54.0417 49.6528 54.4225 48.9927C54.8033 48.3326 55.0024 47.5855 55 46.8257C54.9976 46.066 54.7937 45.3201 54.4087 44.6624L35.7661 13.9081C35.374 13.2685 34.8215 12.7396 34.1621 12.3725C33.5027 12.0054 32.7586 11.8125 32.0017 11.8125C31.2448 11.8125 30.5007 12.0054 29.8413 12.3725C29.1818 12.7396 28.6294 13.2685 28.2372 13.9081" stroke="#FBBC05" stroke-width="4" stroke-miterlimit="10" stroke-linecap="round" stroke-linejoin="round"/>
</svg>
