<svg width="64" height="64" viewBox="0 0 64 64" fill="none" xmlns="http://www.w3.org/2000/svg">
<path d="M50.1885 14C50.1885 12.8954 49.293 12 48.1885 12H9.18848C8.08391 12 7.18848 12.8954 7.18848 14V43C7.18848 44.1046 8.08391 45 9.18848 45H48.1885C49.293 45 50.1885 44.1046 50.1885 43V14ZM46.8808 39.7C46.8808 40.8046 45.9854 41.7 44.8808 41.7H12.4962C11.3916 41.7 10.4962 40.8046 10.4962 39.7V17.3C10.4962 16.1954 11.3916 15.3 12.4962 15.3H44.8808C45.9854 15.3 46.8808 16.1954 46.8808 17.3V39.7Z" fill="#38DE6F"/>
<path d="M55.5085 20C54.5806 20 53.8285 20.7522 53.8285 21.68V46.6316C53.8285 47.7362 52.933 48.6316 51.8285 48.6316H16.8727C15.9425 48.6316 15.1885 49.3856 15.1885 50.3158C15.1885 51.246 15.9425 52 16.8727 52H55.1885C56.293 52 57.1885 51.1046 57.1885 50V21.68C57.1885 20.7522 56.4363 20 55.5085 20Z" fill="#38DE6F"/>
<path d="M29.1885 37.0243C33.3239 37.0243 36.6885 33.4308 36.6885 29.0137C36.6885 24.5966 33.3239 21.0031 29.1885 21.0031C25.0531 21.0031 21.6885 24.5965 21.6885 29.0137C21.6885 33.4309 25.0531 37.0243 29.1885 37.0243ZM29.1885 24.2758C31.486 24.2758 33.3551 26.4013 33.3551 29.0137C33.3551 31.6262 31.486 33.7516 29.1885 33.7516C26.891 33.7516 25.0218 31.6262 25.0218 29.0137C25.0218 26.4013 26.891 24.2758 29.1885 24.2758ZM14.1885 21.6667C14.1885 20.7462 14.9347 20 15.8551 20C16.7756 20 17.5218 20.7462 17.5218 21.6667V36.3333C17.5218 37.2538 16.7756 38 15.8551 38C14.9347 38 14.1885 37.2538 14.1885 36.3333V21.6667ZM40.8551 21.6667C40.8551 20.7462 41.6013 20 42.5218 20C43.4423 20 44.1885 20.7462 44.1885 21.6667V36.3333C44.1885 37.2538 43.4423 38 42.5218 38C41.6013 38 40.8551 37.2538 40.8551 36.3333V21.6667Z" fill="#38DE6F"/>
<path d="M6.60631 9.43874C6.33852 9.17057 6.18822 8.80699 6.18848 8.428C6.18874 8.04901 6.33954 7.68565 6.6077 7.41785C6.87586 7.15004 7.23942 6.99974 7.6184 7C7.99738 7.00026 8.36074 7.15106 8.62853 7.41923L55.7702 54.5622C56.038 54.83 56.1885 55.1933 56.1885 55.572C56.1885 55.9507 56.038 56.3139 55.7702 56.5817C55.5024 56.8495 55.1392 57 54.7605 57C54.3818 57 54.0186 56.8496 53.7508 56.5817L6.60631 9.43874Z" fill="#FF3B30"/>
</svg>
