<svg width="18" height="18" viewBox="0 0 18 18" fill="none" xmlns="http://www.w3.org/2000/svg">
<path d="M8.50008 13.9995C8.49955 14.8132 8.67957 15.6169 9.02716 16.3526L9.02738 16.3531C9.05128 16.4035 9.06213 16.4592 9.05892 16.5149C9.05571 16.5706 9.03856 16.6247 9.00903 16.6721C8.9795 16.7194 8.93854 16.7586 8.88991 16.7861C8.84165 16.8133 8.78738 16.8281 8.73201 16.829C8.73158 16.829 8.73115 16.829 8.73072 16.8291L8.16675 16.8332C8.16614 16.8332 8.16554 16.8332 8.16493 16.8332C6.31842 16.8331 4.61721 16.7151 3.36731 16.3849C2.74396 16.2197 2.20456 15.9942 1.81578 15.6818L1.81549 15.6815C1.41482 15.36 1.16675 14.939 1.16675 14.4165C1.16675 13.9127 1.39788 13.4053 1.76213 12.9452L1.76259 12.9446C2.12958 12.4795 2.65055 12.0366 3.27879 11.6534L3.27883 11.6533C4.53739 10.8855 6.26414 10.3332 8.16675 10.3332C8.52212 10.3332 8.86996 10.3517 9.21038 10.3886L9.21092 10.3887C9.26818 10.3948 9.32287 10.4157 9.36966 10.4492C9.41645 10.4828 9.45375 10.5279 9.47792 10.5802C9.50209 10.6324 9.5123 10.6901 9.50757 10.7475C9.50284 10.8049 9.48332 10.86 9.45092 10.9077L9.45089 10.9077C8.85139 11.7886 8.50015 12.8526 8.50008 13.9995ZM8.50008 13.9995L9.00008 13.9998M8.50008 13.9995C8.50008 13.9996 8.50008 13.9997 8.50008 13.9998H9.00008M9.00008 13.9998C9.00008 12.9565 9.31925 11.9898 9.86425 11.189M9.00008 13.9998C8.9996 14.7396 9.16325 15.4702 9.47925 16.139C9.539 16.2651 9.56611 16.4043 9.55809 16.5436C9.55008 16.683 9.50718 16.8181 9.43336 16.9365C9.35953 17.055 9.25713 17.153 9.13556 17.2216C9.01399 17.2901 8.87715 17.3271 8.73758 17.329L9.86425 11.189M9.86425 11.189C9.94526 11.07 9.99405 10.932 10.0059 10.7886C10.0177 10.6451 9.99217 10.501 9.93174 10.3703C9.87132 10.2396 9.77807 10.1269 9.66109 10.0429C9.54411 9.95903 9.40739 9.90686 9.26425 9.8915L9.86425 11.189ZM15.7487 11.6378L15.7472 11.6404L15.4672 12.1245L15.29 12.431L15.5202 12.7C15.6801 12.8868 15.8042 13.1015 15.8862 13.3333L16.0041 13.6665H16.3576H16.9167C17.0052 13.6665 17.0899 13.7016 17.1524 13.7641C17.215 13.8266 17.2501 13.9114 17.2501 13.9998C17.2501 14.0882 17.215 14.173 17.1525 14.2355C17.0899 14.2981 17.0052 14.3332 16.9167 14.3332H16.3567H16.0026L15.8851 14.6673C15.8044 14.8967 15.6817 15.112 15.5203 15.3014L15.2914 15.5701L15.4679 15.8757L15.7471 16.3591L15.7471 16.3591L15.7487 16.3619C15.771 16.3998 15.7855 16.4418 15.7914 16.4853C15.7974 16.5289 15.7947 16.5732 15.7834 16.6157L16.2179 16.7305L15.7834 16.6157C15.7722 16.6582 15.7527 16.698 15.726 16.7329C15.6993 16.7679 15.6659 16.7971 15.6279 16.8191L15.8779 17.2521L15.6278 16.8191C15.5898 16.8411 15.5477 16.8553 15.5041 16.861C15.4606 16.8667 15.4163 16.8637 15.3738 16.8521C15.3314 16.8406 15.2917 16.8208 15.257 16.7939C15.2222 16.767 15.1931 16.7334 15.1714 16.6952L15.1699 16.6926L14.8907 16.2084L14.7141 15.9021L14.3665 15.9665C14.122 16.0118 13.8744 16.0106 13.6338 15.9664L13.2871 15.9027L13.1106 16.2079L12.8306 16.692L12.8288 16.6952C12.807 16.7334 12.778 16.767 12.7432 16.7939C12.7085 16.8208 12.6687 16.8406 12.6263 16.8521C12.5839 16.8637 12.5396 16.8667 12.496 16.861C12.4524 16.8553 12.4104 16.8411 12.3723 16.8191L12.1223 17.2521L12.3723 16.8191C12.3342 16.7971 12.3009 16.7679 12.2742 16.7329C12.2475 16.698 12.228 16.6582 12.2167 16.6157L11.7975 16.7265L12.2167 16.6157C12.2055 16.5732 12.2028 16.5289 12.2087 16.4853C12.2147 16.4417 12.2292 16.3998 12.2514 16.3619L12.2529 16.3593L12.5329 15.8752L12.7102 15.5687L12.4799 15.2997C12.32 15.1129 12.196 14.8982 12.1139 14.6664L11.996 14.3332H11.6426H11.0834C10.995 14.3332 10.9102 14.2981 10.8477 14.2355C10.7852 14.173 10.7501 14.0882 10.7501 13.9998C10.7501 13.9114 10.7852 13.8266 10.8477 13.7641C10.9102 13.7016 10.995 13.6665 11.0834 13.6665H11.6434H11.9976L12.1151 13.3323C12.1967 13.1004 12.3203 12.8855 12.4798 12.6983L12.7088 12.4297L12.5322 12.1239L12.253 11.6406L12.2531 11.6406L12.2514 11.6378C12.2292 11.5999 12.2147 11.5579 12.2087 11.5144C12.2028 11.4708 12.2055 11.4265 12.2167 11.384L11.7333 11.2562L12.2167 11.384C12.228 11.3415 12.2475 11.3017 12.2742 11.2667C12.3009 11.2318 12.3342 11.2025 12.3723 11.1805C12.4104 11.1586 12.4524 11.1443 12.496 11.1387C12.5396 11.133 12.5839 11.136 12.6263 11.1475C12.6687 11.159 12.7085 11.1788 12.7432 11.2058C12.778 11.2327 12.807 11.2662 12.8288 11.3045L12.8287 11.3045L12.8303 11.3071L13.1094 11.7913L13.286 12.0975L13.6336 12.0332C13.8753 11.9884 14.1232 11.9887 14.3649 12.0338L14.7128 12.0989L14.8898 11.7923L15.1698 11.3073L15.1698 11.3073L15.1714 11.3045C15.1931 11.2662 15.2222 11.2327 15.2569 11.2058C15.2917 11.1788 15.3314 11.159 15.3738 11.1475C15.4163 11.136 15.4606 11.133 15.5041 11.1387C15.5477 11.1443 15.5898 11.1586 15.6278 11.1805C15.6659 11.2025 15.6993 11.2318 15.726 11.2667C15.7527 11.3017 15.7722 11.3415 15.7834 11.384L16.2668 11.2562L15.7834 11.384C15.7947 11.4265 15.7974 11.4708 15.7914 11.5144C15.7855 11.5579 15.771 11.5999 15.7487 11.6378ZM5.57402 2.24045C6.26166 1.55281 7.19429 1.1665 8.16675 1.1665C9.13921 1.1665 10.0718 1.55281 10.7595 2.24045C11.4471 2.92808 11.8334 3.86071 11.8334 4.83317C11.8334 5.80563 11.4471 6.73826 10.7595 7.4259C10.0718 8.11353 9.13921 8.49984 8.16675 8.49984C7.19429 8.49984 6.26166 8.11353 5.57402 7.4259C4.88639 6.73826 4.50008 5.80563 4.50008 4.83317C4.50008 3.86071 4.88639 2.92808 5.57402 2.24045Z" stroke="#334155"/>
</svg>
