<svg width="888" height="888" viewBox="0 0 888 888" fill="none" xmlns="http://www.w3.org/2000/svg">
<path fill-rule="evenodd" clip-rule="evenodd" d="M888 444C888 198.786 689.214 0 444 0C198.786 0 0 198.786 0 444C0 689.214 198.786 888 444 888H888V444Z" fill="#1D4ED8"/>
<path fill-rule="evenodd" clip-rule="evenodd" d="M444.161 139.599C612.362 139.599 748.708 275.944 748.708 444.146C748.708 612.347 612.362 748.693 444.161 748.693C275.959 748.693 139.613 612.347 139.613 444.146C139.613 275.944 275.959 139.599 444.161 139.599ZM206.766 499.269C217.424 545.023 241.067 586.727 274.854 619.369C308.641 652.011 351.135 674.202 397.23 683.276C391.352 603.333 365.07 555.367 331.874 528.84C300.079 503.411 256.955 493.574 206.766 499.238V499.269ZM556.447 528.81C523.251 555.397 496.969 603.333 491.091 683.276C537.19 674.2 579.687 652.004 613.474 619.356C647.262 586.709 670.902 544.999 681.555 499.238C631.366 493.574 588.242 503.411 556.447 528.84V528.81ZM444.161 200.508C387.394 200.498 332.405 220.311 288.69 256.525C244.974 292.739 215.277 343.082 204.726 398.86L203.416 406.412L270.721 392.951C288.446 389.419 305.287 380.069 324.108 367.37L338.635 357.259C362.907 340.021 398.874 322.327 444.161 322.327C486.432 322.327 520.571 337.737 544.661 353.817L564.213 367.37C580.659 378.485 595.642 387.013 610.992 391.368L617.6 392.951L684.905 406.412C675.909 349.028 646.708 296.746 602.566 258.992C558.424 221.238 502.246 200.497 444.161 200.508Z" fill="#FFFEFE"/>
</svg>
