<svg width="1233" height="170" viewBox="0 0 1233 170" fill="none" xmlns="http://www.w3.org/2000/svg">
<path d="M1144.22 163.849V9H1171.11V95.3541L1170.91 92.0177C1173.92 86.6533 1178.17 82.3356 1183.67 79.0646C1189.16 75.6628 1195.9 73.9619 1203.88 73.9619C1211.99 73.9619 1218.73 76.3824 1224.1 81.2234C1229.59 85.9337 1232.4 92.0831 1232.54 99.6718V163.849H1205.06V109.877C1204.93 106.083 1203.88 103.074 1201.92 100.849C1200.09 98.4943 1196.95 97.3167 1192.5 97.3167C1188.31 97.3167 1184.65 98.6905 1181.51 101.438C1178.37 104.186 1175.95 107.915 1174.25 112.625C1172.55 117.335 1171.69 122.765 1171.69 128.914V163.849H1144.22Z" fill="#334155"/>
<path d="M1123.11 156.194C1119.32 159.203 1114.54 161.624 1108.78 163.455C1103.16 165.287 1097.6 166.203 1092.1 166.203C1082.29 166.203 1073.72 164.437 1066.39 160.904C1059.2 157.241 1053.57 152.072 1049.51 145.4C1045.59 138.596 1043.63 130.418 1043.63 120.867C1043.63 111.316 1045.79 103.204 1050.1 96.531C1054.42 89.7274 1060.05 84.5592 1066.98 81.0265C1074.05 77.4939 1081.44 75.7275 1089.16 75.7275C1096.88 75.7275 1103.55 76.7743 1109.18 78.8677C1114.93 80.9611 1119.84 83.7088 1123.9 87.1106L1110.55 104.774C1108.72 103.335 1106.17 101.895 1102.9 100.456C1099.76 98.8861 1096.03 98.1011 1091.71 98.1011C1087.92 98.1011 1084.45 99.0824 1081.31 101.045C1078.17 103.008 1075.68 105.69 1073.85 109.092C1072.02 112.493 1071.1 116.419 1071.1 120.867C1071.1 125.054 1072.08 128.914 1074.05 132.446C1076.01 135.979 1078.69 138.792 1082.09 140.886C1085.63 142.848 1089.75 143.83 1094.46 143.83C1097.47 143.83 1100.21 143.437 1102.7 142.652C1105.32 141.736 1107.54 140.493 1109.37 138.923L1123.11 156.194Z" fill="#334155"/>
<path d="M981.111 40.4014H1008.59V77.6906H1029.39V99.0829H1008.59V163.849H981.111V99.0829H967.765V77.6906H981.111V40.4014Z" fill="#334155"/>
<path d="M917.294 78.0841H944.77V163.849H917.294V78.0841ZM916.705 47.6639C916.705 43.6079 918.275 40.2715 921.415 37.6547C924.686 35.0379 928.154 33.7295 931.817 33.7295C935.481 33.7295 938.817 35.0379 941.826 37.6547C944.966 40.2715 946.536 43.6079 946.536 47.6639C946.536 51.7199 944.966 55.0563 941.826 57.6731C938.817 60.1591 935.481 61.4021 931.817 61.4021C928.154 61.4021 924.686 60.1591 921.415 57.6731C918.275 55.0563 916.705 51.7199 916.705 47.6639Z" fill="#334155"/>
<path d="M884.594 19.4014V163.848H856.136V105.167H791.567V163.848H763.109V19.4014H791.567V77.6904H856.136V19.4014H884.594Z" fill="#334155"/>
<path d="M597.64 163.849V9H625.116V163.849H597.64ZM646.901 105.56L685.76 163.849H653.77L628.845 121.26L646.901 105.56ZM616.873 140.101L614.126 113.999L665.938 75.9244L682.62 90.6439L616.873 140.101Z" fill="#334155"/>
<path d="M541.866 78.0841H569.342V163.849H541.866V78.0841ZM541.277 47.6639C541.277 43.6079 542.847 40.2715 545.988 37.6547C549.259 35.0379 552.726 33.7295 556.389 33.7295C560.053 33.7295 563.389 35.0379 566.399 37.6547C569.539 40.2715 571.109 43.6079 571.109 47.6639C571.109 51.7199 569.539 55.0563 566.399 57.6731C563.389 60.1591 560.053 61.4021 556.389 61.4021C552.726 61.4021 549.259 60.1591 545.988 57.6731C542.847 55.0563 541.277 51.7199 541.277 47.6639Z" fill="#334155"/>
<path d="M454.925 167.971C447.206 167.971 440.729 165.616 435.496 160.905C430.262 156.064 427.514 149.849 427.253 142.261V78.084H454.729V132.055C454.991 135.85 455.972 138.924 457.673 141.279C459.374 143.504 462.252 144.616 466.308 144.616C470.364 144.616 473.832 143.242 476.71 140.494C479.719 137.747 482.009 134.018 483.579 129.308C485.28 124.467 486.13 119.037 486.13 113.018V78.084H513.607V163.849H488.682L486.523 148.149L486.916 149.915C484.953 153.448 482.467 156.588 479.458 159.335C476.448 162.083 472.85 164.176 468.663 165.616C464.607 167.186 460.028 167.971 454.925 167.971Z" fill="#334155"/>
<path d="M358.645 135.979H403.392V163.848H321.355L358.645 135.979ZM247.758 91.8208C247.758 81.877 249.655 72.4566 253.45 63.5595C257.244 54.6624 262.478 46.812 269.15 40.0084C275.954 33.0739 283.804 27.644 292.701 23.7188C301.599 19.7936 311.15 17.8311 321.355 17.8311C331.43 17.8311 340.916 19.7936 349.813 23.7188C358.71 27.644 366.56 33.0739 373.364 40.0084C380.299 46.812 385.663 54.6624 389.457 63.5595C393.383 72.4566 395.345 81.877 395.345 91.8208C395.345 102.026 393.383 111.578 389.457 120.475C385.663 129.372 380.299 137.222 373.364 144.026C366.56 150.699 358.71 155.932 349.813 159.727C340.916 163.521 331.43 165.418 321.355 165.418C311.15 165.418 301.599 163.521 292.701 159.727C283.804 155.932 275.954 150.699 269.15 144.026C262.478 137.222 257.244 129.372 253.45 120.475C249.655 111.578 247.758 102.026 247.758 91.8208ZM277.197 91.8208C277.197 98.1011 278.309 104.054 280.533 109.68C282.888 115.176 286.094 120.082 290.15 124.4C294.337 128.587 299.113 131.858 304.477 134.213C309.972 136.568 315.925 137.746 322.337 137.746C328.486 137.746 334.178 136.568 339.411 134.213C344.776 131.858 349.42 128.587 353.346 124.4C357.271 120.213 360.346 115.372 362.57 109.877C364.794 104.251 365.906 98.232 365.906 91.8208C365.906 85.5405 364.729 79.6527 362.374 74.1575C360.149 68.5314 357.009 63.6249 352.953 59.438C349.028 55.2512 344.383 51.9802 339.019 49.6251C333.654 47.27 327.832 46.0924 321.552 46.0924C315.271 46.0924 309.449 47.27 304.084 49.6251C298.72 51.9802 294.01 55.2512 289.954 59.438C285.898 63.6249 282.758 68.5314 280.533 74.1575C278.309 79.6527 277.197 85.5405 277.197 91.8208Z" fill="#334155"/>
<path fill-rule="evenodd" clip-rule="evenodd" d="M170 85C170 38.0558 131.944 0 85 0C38.0558 0 0 38.0558 0 85C0 131.944 38.0558 170 85 170H170V85Z" fill="#1D4ED8"/>
<path fill-rule="evenodd" clip-rule="evenodd" d="M85.0056 26.7168C117.197 26.7168 143.291 52.8113 143.291 85.0025C143.291 117.194 117.197 143.288 85.0056 143.288C52.8144 143.288 26.7198 117.194 26.7198 85.0025C26.7198 52.8113 52.8144 26.7168 85.0056 26.7168ZM39.5718 95.5522C41.6116 104.309 46.1365 112.29 52.6028 118.538C59.0692 124.785 67.2019 129.032 76.0237 130.768C74.8988 115.468 69.8688 106.288 63.5156 101.212C57.4306 96.3449 49.1773 94.4623 39.5718 95.5464V95.5522ZM106.496 101.206C100.142 106.294 95.1123 115.468 93.9874 130.768C102.81 129.031 110.943 124.783 117.41 118.535C123.876 112.287 128.401 104.304 130.439 95.5464C120.834 94.4623 112.581 96.3449 106.496 101.212V101.206ZM85.0056 38.3739C74.1412 38.372 63.6172 42.1639 55.2508 49.0947C46.8844 56.0256 41.2007 65.6604 39.1813 76.3354L38.9307 77.7809L51.8118 75.2047C55.2041 74.5286 58.4273 72.7392 62.0293 70.3087L64.8096 68.3736C69.4549 65.0746 76.3385 61.6882 85.0056 61.6882C93.0956 61.6882 99.6294 64.6375 104.24 67.715L107.982 70.3087C111.129 72.4361 113.997 74.0681 116.934 74.9016L118.199 75.2047L131.08 77.7809C129.359 66.7984 123.77 56.7924 115.322 49.5669C106.874 42.3414 96.1222 38.3718 85.0056 38.3739Z" fill="#FFFEFE"/>
</svg>
