<svg width="18" height="18" viewBox="0 0 18 18" fill="none" xmlns="http://www.w3.org/2000/svg">
<path fill-rule="evenodd" clip-rule="evenodd" d="M18 9C18 4.02944 13.9706 0 9 0C4.02944 0 0 4.02944 0 9C0 13.9706 4.02944 18 9 18H18L18 9Z" fill="#1D4ED8"/>
<path fill-rule="evenodd" clip-rule="evenodd" d="M9.00053 2.82886C12.409 2.82886 15.172 5.59181 15.172 9.00029C15.172 12.4088 12.409 15.1717 9.00053 15.1717C5.59205 15.1717 2.8291 12.4088 2.8291 9.00029C2.8291 5.59181 5.59205 2.82886 9.00053 2.82886ZM4.1899 10.1173C4.40587 11.0445 4.88498 11.8896 5.56965 12.5511C6.25433 13.2125 7.11544 13.6622 8.04951 13.8461C7.9304 12.2261 7.39781 11.2541 6.72512 10.7166C6.08083 10.2012 5.20695 10.0019 4.1899 10.1167V10.1173ZM11.2759 10.7159C10.6032 11.2547 10.0707 12.2261 9.95155 13.8461C10.8857 13.6622 11.7469 13.2124 12.4315 12.5508C13.1162 11.8892 13.5953 11.044 13.8112 10.1167C12.7941 10.0019 11.9202 10.2012 11.2759 10.7166V10.7159ZM9.00053 4.06314C7.85019 4.06294 6.73588 4.46443 5.85002 5.19829C4.96417 5.93214 4.36237 6.9523 4.14855 8.08259L4.12202 8.23565L5.4859 7.96287C5.84508 7.89128 6.18636 7.70182 6.56775 7.44447L6.86213 7.23958C7.35399 6.89027 8.08284 6.53171 9.00053 6.53171C9.85712 6.53171 10.5489 6.84399 11.0371 7.16984L11.4333 7.44447C11.7666 7.66973 12.0702 7.84253 12.3812 7.93078L12.5152 7.96287L13.879 8.23565C13.6967 7.0728 13.105 6.01333 12.2105 5.24828C11.316 4.48322 10.1776 4.06292 9.00053 4.06314Z" fill="#FFFEFE"/>
</svg>
