<svg width="25" height="24" viewBox="0 0 25 24" fill="none" xmlns="http://www.w3.org/2000/svg">
<path d="M16.42 3C16.7447 2.99997 17.0645 3.07898 17.3518 3.23021C17.6391 3.38144 17.8852 3.60034 18.069 3.868L18.156 4.008L21.736 10.273C21.8797 10.5246 21.9671 10.8044 21.992 11.093L22 11.266V15.764C22 16.012 21.9539 16.2579 21.864 16.489L21.789 16.659L20.671 18.894C20.5172 19.2019 20.2866 19.465 20.0014 19.6577C19.7162 19.8504 19.3861 19.9662 19.043 19.994L18.882 20H17C16.4954 20.0002 16.0094 19.8096 15.6395 19.4665C15.2695 19.1234 15.0428 18.6532 15.005 18.15L15 18H9C9.00016 18.5046 8.80959 18.9906 8.4665 19.3605C8.12341 19.7305 7.65316 19.9572 7.15 19.995L7 20H5.118C4.77414 19.9999 4.43613 19.9111 4.13659 19.7422C3.83706 19.5734 3.58612 19.3301 3.408 19.036L3.329 18.894L2.211 16.658C2.10031 16.4362 2.03182 16.1958 2.009 15.949L2 15.764V11.266C1.99999 10.9766 2.06277 10.6907 2.184 10.428L2.264 10.273L5.844 4.008C6.00509 3.72608 6.23239 3.48761 6.50628 3.31321C6.78017 3.13881 7.0924 3.03371 7.416 3.007L7.58 3H16.42ZM16.42 5H7.58L4 11.266V15.764L5.118 18H7V17.1C6.99986 16.8289 7.09981 16.5674 7.28067 16.3655C7.46152 16.1636 7.71056 16.0356 7.98 16.006L8.1 16H15.9C16.1711 15.9999 16.4326 16.0998 16.6345 16.2807C16.8364 16.4615 16.9644 16.7106 16.994 16.98L17 17.1V18H18.882L20 15.764V11.266L16.42 5ZM16.554 10.105C16.7911 9.98697 17.0654 9.96785 17.3167 10.0518C17.5679 10.1358 17.7755 10.3161 17.894 10.553C18.01 10.7908 18.028 11.0646 17.9442 11.3155C17.8605 11.5665 17.6816 11.7746 17.446 11.895C15.802 12.715 13.81 13 12 13C10.154 13 8.23 12.718 6.558 11.897C6.32252 11.7759 6.14355 11.5677 6.05915 11.3168C5.97474 11.0658 5.99155 10.7918 6.106 10.553C6.21807 10.3348 6.4057 10.1649 6.63388 10.0749C6.86205 9.98492 7.11518 9.98104 7.346 10.064L7.613 10.179L7.857 10.276L8.076 10.356L8.336 10.442L8.638 10.534L8.978 10.625L9.355 10.715L9.766 10.797C10.503 10.932 11.2507 11 12 11C13.516 11 15.168 10.768 16.554 10.105Z" fill="#334155"/>
</svg>
