<svg width="18" height="18" viewBox="0 0 18 18" fill="none" xmlns="http://www.w3.org/2000/svg">
<path d="M0.666748 12.333C0.666748 9.97634 0.666748 8.79717 1.39925 8.06551C2.13091 7.33301 3.31008 7.33301 5.66675 7.33301H12.3334C14.6901 7.33301 15.8692 7.33301 16.6009 8.06551C17.3334 8.79717 17.3334 9.97634 17.3334 12.333C17.3334 14.6897 17.3334 15.8688 16.6009 16.6005C15.8692 17.333 14.6901 17.333 12.3334 17.333H5.66675C3.31008 17.333 2.13091 17.333 1.39925 16.6005C0.666748 15.8688 0.666748 14.6897 0.666748 12.333Z" stroke="#334155"/>
<path d="M4 7.33317V5.6665C4 4.34042 4.52678 3.06865 5.46447 2.13097C6.40215 1.19329 7.67392 0.666504 9 0.666504C10.3261 0.666504 11.5979 1.19329 12.5355 2.13097C13.4732 3.06865 14 4.34042 14 5.6665V7.33317" stroke="#334155" stroke-linecap="round"/>
<path d="M5.66675 12.333H5.67425M8.99258 12.333H9.00008M12.3259 12.333H12.3334" stroke="#334155" stroke-linecap="round" stroke-linejoin="round"/>
</svg>
