<svg width="64" height="50" viewBox="0 0 64 50" fill="none" xmlns="http://www.w3.org/2000/svg">
<path d="M51.6879 21.5548L51.6881 21.5549C54.621 22.4888 56.8281 23.7235 58.3034 25.3451C59.7906 26.9796 60.5 28.9699 60.5 31.3338C60.5 34.4338 58.5502 37.4603 55.1669 39.9371V45.3334V45.3339C55.1667 45.5068 55.1281 45.6775 55.0539 45.8337C54.9797 45.9896 54.8719 46.1272 54.7382 46.2364C54.738 46.2365 54.7378 46.2367 54.7376 46.2368L54.4216 45.8494C54.3451 45.9119 54.2557 45.9567 54.1597 45.9805L51.6879 21.5548ZM51.6879 21.5548C51.393 21.4611 51.073 21.4883 50.7982 21.6305C50.5234 21.7727 50.3163 22.0183 50.2226 22.3132L50.6991 22.4647M51.6879 21.5548L50.6991 22.4647M50.6991 22.4647L50.2226 22.3132C50.1288 22.608 50.1561 22.9281 50.2983 23.2029C50.4404 23.4776 50.6859 23.6846 50.9806 23.7784L50.6991 22.4647ZM53.3394 38.3724C54.2598 37.7388 55.4782 36.7739 56.4621 35.5579C57.4473 34.3405 58.1667 32.9102 58.1667 31.3338C58.1667 29.4973 57.624 28.0315 56.4888 26.8215C55.3389 25.5958 53.5463 24.5958 50.9809 23.7785L53.3394 38.3724ZM53.3394 38.3724C53.1836 38.4795 53.0562 38.6228 52.9681 38.7901C52.8798 38.9576 52.8337 39.144 52.8336 39.3333V39.3335V43.6778C51.5817 43.0957 50.4599 42.2618 49.5397 41.2255L49.5397 41.2254C49.4054 41.0743 49.2342 40.9606 49.0427 40.8956C48.8513 40.8305 48.6462 40.8164 48.4477 40.8544L48.4471 40.8545C48.0509 40.931 47.6498 41.0384 47.2638 41.1418L47.2512 41.1452L47.2509 41.1453C46.5554 41.3321 45.9209 41.5001 45.334 41.5001C42.0028 41.5001 39.7127 40.7904 37.3585 39.06C37.1092 38.8767 36.7973 38.7998 36.4914 38.8464L36.5667 39.3407L36.4914 38.8464C36.1854 38.893 35.9104 39.0592 35.727 39.3086C35.5436 39.5579 35.4667 39.8698 35.5133 40.1758C35.5599 40.4818 35.7261 40.7568 35.9754 40.9402L35.9756 40.9404C38.7738 42.9973 41.5057 43.8334 45.334 43.8334C46.2435 43.8334 47.0883 43.606 47.837 43.4044L47.8572 43.3989L47.8572 43.3989L47.8624 43.3975C48.0007 43.3586 48.1382 43.3217 48.275 43.2866C50.8034 45.8349 53.5766 46.4389 53.7686 46.4769L53.3394 38.3724Z" fill="#1D4ED8" stroke="#1D4ED8"/>
<path d="M11.5 43.3271L11.5 43.3301C11.5012 43.5244 11.5501 43.7156 11.6428 43.8866C11.7354 44.0576 11.869 44.2032 12.032 44.3098C12.1951 44.4165 12.3823 44.4807 12.5767 44.4963C12.7711 44.5119 12.9662 44.4782 13.1442 44.3986L13.1453 44.3981C13.3625 44.3002 17.8431 42.2392 21.7603 37.9979C23.3848 38.2971 25.219 38.5773 26.904 38.5773C33.298 38.5773 38.6906 36.8596 42.4957 33.8171C46.3102 30.7671 48.5 26.407 48.5 21.2097C48.5 10.4729 38.8316 2.5 26.236 2.5C13.5885 2.5 3.5 10.6353 3.5 21.2124C3.5 27.4661 7.78897 31.933 11.5 34.632L11.5 43.3271ZM21.5534 35.5684L21.5484 35.5675C21.3505 35.5314 21.1469 35.5468 20.9567 35.6122C20.7666 35.6775 20.5967 35.7905 20.4626 35.9398L20.4626 35.9398L20.4587 35.9443C18.158 38.5692 15.506 40.3766 13.8333 41.3668V34.0239V34.0237C13.8333 33.8342 13.7876 33.6473 13.7 33.479L13.2565 33.7099L13.7 33.479C13.6125 33.3109 13.4855 33.1662 13.3296 33.0578C9.84308 30.6311 5.83333 26.6502 5.83333 21.2124C5.83333 12.1266 14.6852 4.84887 26.236 4.84887C37.702 4.84887 46.1667 11.9594 46.1667 21.2097C46.1667 25.6944 44.2541 29.4303 40.9089 32.0569C37.5538 34.6912 32.73 36.2284 26.9027 36.2284C25.2088 36.2284 23.2655 35.8989 21.5534 35.5684Z" fill="#1D4ED8" stroke="#1D4ED8"/>
<path d="M26 18C24.5293 18 23.3333 19.3143 23.3333 20.9304C23.3333 22.5465 24.5293 23.8608 26 23.8608C27.4707 23.8608 28.6667 22.5465 28.6667 20.9304C28.6667 19.3143 27.4707 18 26 18ZM26 22.3956C25.6567 22.3787 25.3325 22.217 25.095 21.9441C24.8575 21.6711 24.725 21.308 24.725 20.9304C24.725 20.5528 24.8575 20.1897 25.095 19.9167C25.3325 19.6438 25.6567 19.4821 26 19.4652C26.3433 19.4821 26.6675 19.6438 26.905 19.9167C27.1425 20.1897 27.275 20.5528 27.275 20.9304C27.275 21.308 27.1425 21.6711 26.905 21.9441C26.6675 22.217 26.3433 22.3787 26 22.3956ZM35.3333 18C33.8627 18 32.6667 19.3143 32.6667 20.9304C32.6667 22.5465 33.8627 23.8608 35.3333 23.8608C36.804 23.8608 38 22.5465 38 20.9304C38 19.3143 36.804 18 35.3333 18ZM35.3333 22.3956C34.99 22.3787 34.6659 22.217 34.4284 21.9441C34.1909 21.6711 34.0583 21.308 34.0583 20.9304C34.0583 20.5528 34.1909 20.1897 34.4284 19.9167C34.6659 19.6438 34.99 19.4821 35.3333 19.4652C35.6766 19.4821 36.0008 19.6438 36.2383 19.9167C36.4758 20.1897 36.6084 20.5528 36.6084 20.9304C36.6084 21.308 36.4758 21.6711 36.2383 21.9441C36.0008 22.217 35.6766 22.3787 35.3333 22.3956ZM16.6667 18.1392C15.196 18.1392 14 19.4535 14 21.0696C14 22.6857 15.196 24 16.6667 24C18.1373 24 19.3333 22.6857 19.3333 21.0696C19.3333 19.4535 18.1373 18.1392 16.6667 18.1392ZM16.6667 22.5348C16.3234 22.5179 15.9992 22.3562 15.7617 22.0832C15.5242 21.8103 15.3916 21.4472 15.3916 21.0696C15.3916 20.692 15.5242 20.3289 15.7617 20.0559C15.9992 19.783 16.3234 19.6213 16.6667 19.6044C17.01 19.6213 17.3341 19.783 17.5716 20.0559C17.8091 20.3289 17.9417 20.692 17.9417 21.0696C17.9417 21.4472 17.8091 21.8103 17.5716 22.0832C17.3341 22.3562 17.01 22.5179 16.6667 22.5348Z" fill="#1D4ED8"/>
<path d="M26 18C24.5293 18 23.3333 19.3143 23.3333 20.9304C23.3333 22.5465 24.5293 23.8608 26 23.8608C27.4707 23.8608 28.6667 22.5465 28.6667 20.9304C28.6667 19.3143 27.4707 18 26 18ZM26 22.3956C25.6567 22.3787 25.3325 22.217 25.095 21.9441C24.8575 21.6711 24.725 21.308 24.725 20.9304C24.725 20.5528 24.8575 20.1897 25.095 19.9167C25.3325 19.6438 25.6567 19.4821 26 19.4652C26.3433 19.4821 26.6675 19.6438 26.905 19.9167C27.1425 20.1897 27.275 20.5528 27.275 20.9304C27.275 21.308 27.1425 21.6711 26.905 21.9441C26.6675 22.217 26.3433 22.3787 26 22.3956ZM35.3333 18C33.8627 18 32.6667 19.3143 32.6667 20.9304C32.6667 22.5465 33.8627 23.8608 35.3333 23.8608C36.804 23.8608 38 22.5465 38 20.9304C38 19.3143 36.804 18 35.3333 18ZM35.3333 22.3956C34.99 22.3787 34.6659 22.217 34.4284 21.9441C34.1909 21.6711 34.0583 21.308 34.0583 20.9304C34.0583 20.5528 34.1909 20.1897 34.4284 19.9167C34.6659 19.6438 34.99 19.4821 35.3333 19.4652C35.6766 19.4821 36.0008 19.6438 36.2383 19.9167C36.4758 20.1897 36.6084 20.5528 36.6084 20.9304C36.6084 21.308 36.4758 21.6711 36.2383 21.9441C36.0008 22.217 35.6766 22.3787 35.3333 22.3956ZM16.6667 18.1392C15.196 18.1392 14 19.4535 14 21.0696C14 22.6857 15.196 24 16.6667 24C18.1373 24 19.3333 22.6857 19.3333 21.0696C19.3333 19.4535 18.1373 18.1392 16.6667 18.1392ZM16.6667 22.5348C16.3234 22.5179 15.9992 22.3562 15.7617 22.0832C15.5242 21.8103 15.3916 21.4472 15.3916 21.0696C15.3916 20.692 15.5242 20.3289 15.7617 20.0559C15.9992 19.783 16.3234 19.6213 16.6667 19.6044C17.01 19.6213 17.3341 19.783 17.5716 20.0559C17.8091 20.3289 17.9417 20.692 17.9417 21.0696C17.9417 21.4472 17.8091 21.8103 17.5716 22.0832C17.3341 22.3562 17.01 22.5179 16.6667 22.5348Z" stroke="#1D4ED8"/>
</svg>
