<svg width="224" height="209" viewBox="0 0 224 209" fill="none" xmlns="http://www.w3.org/2000/svg">
<path d="M0.950396 164.343L0.944118 164.336L0.937569 164.329C0.782496 164.164 0.66389 163.969 0.589496 163.755C0.515103 163.541 0.486593 163.314 0.505827 163.089C0.52506 162.864 0.591605 162.645 0.701119 162.447C0.80957 162.251 0.957748 162.08 1.13615 161.944C1.67622 161.563 2.60249 161.533 3.66942 161.788C4.70596 162.037 5.71584 162.517 6.29753 162.941C6.29722 162.941 6.30002 162.944 6.30668 162.95C6.31677 162.959 6.33574 162.976 6.36626 163.004C6.41738 163.051 6.48569 163.115 6.56597 163.191C6.72624 163.342 6.9301 163.536 7.131 163.729C7.2306 163.824 7.32929 163.919 7.42135 164.007C7.1688 164.136 6.85463 164.291 6.51261 164.448C5.64662 164.845 4.69089 165.211 4.09013 165.256C3.53818 165.295 2.91301 165.263 2.33989 165.117C1.76426 164.97 1.27688 164.717 0.950396 164.343Z" fill="#334155" stroke="#334155"/>
<mask id="path-2-inside-1_136_4880" fill="white">
<path d="M9.31477 173.277C10.5802 172.832 12.6753 170.811 12.8394 170.647C13.9926 171.85 15.2249 172.974 16.528 174.013C17.2826 174.617 18.0606 175.208 18.8715 175.789C18.4684 175.578 18.1122 175.391 18.0606 175.372C16.5749 174.791 13.3737 174.542 12.2347 175.925C12.0489 176.159 11.9149 176.43 11.8416 176.72C11.7683 177.009 11.7575 177.311 11.8098 177.606C11.8621 177.9 11.9763 178.18 12.1449 178.427C12.3135 178.673 12.5327 178.881 12.7878 179.037C13.8377 179.735 15.3797 179.539 16.4999 179.14C17.6201 178.742 19.4621 177.054 19.9401 176.6C20.2448 176.82 20.5447 177.045 20.8494 177.261C22.3164 178.311 23.7881 179.351 25.1989 180.415C25.6957 180.79 26.1691 181.179 26.6472 181.563C26.291 181.376 25.991 181.221 25.9441 181.202C24.4584 180.621 21.2572 180.373 20.1182 181.756C19.9371 181.991 19.8076 182.261 19.738 182.55C19.6683 182.838 19.6602 183.138 19.7142 183.43C19.7681 183.722 19.8829 183.999 20.051 184.243C20.2191 184.488 20.4369 184.694 20.69 184.849C21.7399 185.543 23.2819 185.346 24.4021 184.952C25.5223 184.558 27.1862 183.026 27.7533 182.491C28.222 182.899 28.6907 183.307 29.1594 183.729C29.4547 184.019 29.7593 184.282 30.0405 184.591L30.8889 185.491C31.4044 186.077 31.9434 186.682 32.4309 187.272C32.7777 187.68 33.0964 188.069 33.4198 188.467C32.9511 188.088 31.9528 187.366 31.8685 187.314C30.4624 186.517 27.3549 185.782 26.0285 186.981C25.8137 187.186 25.6444 187.433 25.5316 187.707C25.4189 187.981 25.3652 188.276 25.374 188.573C25.3828 188.869 25.4541 189.16 25.583 189.427C25.7119 189.694 25.8956 189.931 26.1222 190.122C27.0596 190.965 28.611 191.008 29.7781 190.787C31.067 190.539 33.3589 188.936 33.6448 188.734C34.1744 189.391 34.69 190.037 35.1634 190.651C36.4429 192.301 37.5069 193.768 38.3271 194.954L39.377 194.401C38.5052 193.201 37.371 191.692 35.993 189.995C35.454 189.325 34.8634 188.622 34.2541 187.905C34.8376 187.221 35.3792 186.503 35.8758 185.754C37.146 186.222 39.7566 186.133 40.0941 186.124C40.1785 186.967 40.2488 187.783 40.305 188.561C40.455 190.581 40.53 192.353 40.5722 193.773L41.7111 193.168C41.6408 191.837 41.533 190.253 41.3596 188.481C41.2799 187.624 41.1768 186.714 41.0596 185.777C41.3877 185.683 44.0827 184.896 45.0763 184.043C45.9856 183.269 46.923 182.032 46.848 180.762C46.8401 180.465 46.7699 180.174 46.6419 179.906C46.5139 179.638 46.331 179.401 46.1051 179.208C45.8792 179.016 45.6154 178.873 45.3307 178.79C45.0461 178.706 44.747 178.683 44.453 178.723C42.6954 179.009 41.3033 181.91 41.0643 183.485C41.0643 183.579 41.008 184.605 40.994 185.252C40.9471 184.872 40.9002 184.502 40.8487 184.108C40.7409 183.33 40.6143 182.557 40.4831 181.727C40.405 181.331 40.3253 180.927 40.2441 180.518C40.1738 180.11 40.0472 179.693 39.9488 179.276C39.7051 178.311 39.4051 177.35 39.0864 176.384C39.766 176.295 42.1751 175.916 43.1922 175.302C44.2092 174.688 45.3201 173.591 45.4372 172.339C45.474 172.045 45.4486 171.746 45.3626 171.462C45.2766 171.178 45.132 170.916 44.938 170.691C44.744 170.467 44.5051 170.286 44.2367 170.159C43.9682 170.033 43.6762 169.965 43.3796 169.958C41.5986 169.958 39.7847 172.635 39.3067 174.177C39.2786 174.275 39.0583 175.405 38.9505 176.028C38.7536 175.447 38.5614 174.87 38.3412 174.294C37.7131 172.625 37.0194 170.957 36.3398 169.288L35.7258 167.756C35.9696 167.723 38.8427 167.352 39.9816 166.649C40.994 166.021 42.1095 164.939 42.222 163.687C42.266 163.39 42.2462 163.087 42.164 162.799C42.0818 162.51 41.9391 162.242 41.7453 162.013C41.5516 161.784 41.3112 161.598 41.0402 161.469C40.7692 161.34 40.4739 161.27 40.1738 161.264C38.388 161.264 36.5742 163.94 36.1008 165.459C36.0633 165.576 35.754 167.203 35.693 167.62C35.2243 166.495 34.8072 165.365 34.4229 164.24C33.897 162.72 33.4696 161.167 33.1433 159.591C33.2558 159.591 36.2601 159.202 37.4272 158.48C38.4349 157.852 39.5504 156.769 39.6676 155.518C39.7051 155.224 39.6804 154.925 39.5949 154.641C39.5095 154.357 39.3653 154.095 39.1717 153.87C38.9781 153.645 38.7394 153.464 38.4712 153.338C38.2029 153.212 37.9111 153.143 37.6147 153.137C35.8289 153.137 34.0151 155.813 33.5417 157.332C33.5042 157.454 33.1667 159.207 33.1293 159.525C33.1293 159.432 33.0824 159.342 33.0636 159.249C32.7799 157.658 32.6372 156.046 32.6371 154.431C32.6371 153.54 32.6652 152.687 32.7215 151.857C33.2886 151.857 35.8758 151.764 37.0007 151.229C38.1256 150.695 39.2973 149.762 39.5551 148.53C39.6239 148.241 39.6315 147.942 39.5773 147.65C39.5231 147.359 39.4084 147.082 39.2405 146.838C39.0726 146.594 38.8554 146.387 38.6028 146.232C38.3502 146.077 38.0678 145.977 37.774 145.938C35.9977 145.76 33.9026 148.202 33.2605 149.664C33.2277 149.744 32.9605 150.601 32.7918 151.206C32.8246 150.836 32.848 150.447 32.8855 150.09C33.0214 148.745 33.2324 147.527 33.4245 146.444C33.537 145.83 33.6542 145.282 33.7667 144.766C34.3197 144.461 36.5179 143.219 37.2538 142.244C37.9896 141.27 38.6224 139.901 38.2755 138.673C38.2043 138.384 38.0728 138.113 37.8895 137.878C37.7062 137.643 37.4753 137.449 37.212 137.31C36.9487 137.17 36.6588 137.088 36.3615 137.069C36.0642 137.049 35.7661 137.093 35.4868 137.197C33.8276 137.853 33.0964 140.988 33.1996 142.577C33.1996 142.718 33.5979 144.85 33.6261 144.832H33.6589C33.5417 145.324 33.4198 145.853 33.298 146.439C33.0824 147.517 32.8293 148.736 32.6793 150.081C32.4833 151.528 32.3722 152.985 32.3465 154.445C32.3105 156.081 32.4203 157.717 32.6746 159.333C32.6746 159.333 32.6746 159.371 32.6746 159.389C32.4403 158.921 31.7372 157.636 31.6716 157.547C30.7342 156.244 28.2173 154.266 26.5159 154.796C26.2358 154.892 25.9791 155.047 25.7624 155.249C25.5458 155.451 25.374 155.696 25.2582 155.969C25.1424 156.241 25.0852 156.535 25.0903 156.831C25.0955 157.128 25.1628 157.419 25.288 157.688C25.7801 158.846 27.1627 159.535 28.3298 159.825C29.6328 160.149 32.4918 159.619 32.7215 159.577C33.0187 161.215 33.4258 162.831 33.9401 164.414C34.2354 165.351 34.5588 166.26 34.8775 167.179C34.6619 166.781 34.465 166.429 34.4322 166.382C33.4948 165.079 30.9779 163.101 29.2766 163.631C28.9965 163.727 28.7397 163.882 28.5231 164.084C28.3064 164.286 28.1346 164.531 28.0188 164.804C27.903 165.076 27.8458 165.37 27.851 165.666C27.8561 165.963 27.9234 166.254 28.0486 166.523C28.5407 167.685 29.9234 168.37 31.0857 168.66C32.2481 168.951 34.7088 168.552 35.3556 168.435C35.4915 168.787 35.618 169.138 35.754 169.49C36.3961 171.177 37.0476 172.855 37.6287 174.519C37.835 175.105 38.0178 175.691 38.2052 176.276C38.0131 175.925 37.8443 175.63 37.8162 175.587C36.8788 174.285 34.3572 172.307 32.6606 172.836C32.38 172.932 32.1228 173.086 31.9056 173.288C31.6884 173.49 31.5161 173.735 31.3999 174.008C31.2836 174.28 31.226 174.574 31.2309 174.871C31.2357 175.167 31.3028 175.459 31.4279 175.728C31.9247 176.886 33.3027 177.575 34.4697 177.865C35.6368 178.156 37.8537 177.79 38.6224 177.659C38.7958 178.264 38.9692 178.868 39.0911 179.464C39.1754 179.871 39.2879 180.26 39.3535 180.673C39.4192 181.085 39.4942 181.488 39.5645 181.887C39.6676 182.665 39.7847 183.466 39.8691 184.23C39.93 184.76 39.9816 185.266 40.0332 185.772C39.8316 185.186 39.4192 184.047 39.3723 183.954C38.7058 182.726 37.7382 181.687 36.5601 180.935C36.4907 180.796 36.4091 180.662 36.3164 180.537C36.1462 180.294 35.9269 180.09 35.6726 179.937C35.4182 179.784 35.1347 179.687 34.8403 179.651C34.5458 179.615 34.2472 179.642 33.9637 179.729C33.6802 179.816 33.4183 179.962 33.1949 180.157C31.8825 181.367 32.3278 184.554 32.9933 186.002C33.0355 186.086 33.5651 186.963 33.9307 187.511C33.6776 187.221 33.462 186.935 33.1761 186.639C32.6606 186.049 32.1262 185.472 31.5591 184.854L30.692 183.972C30.4108 183.677 30.0733 183.396 29.7546 183.101C29.0188 182.435 28.2407 181.793 27.444 181.17C27.9595 180.701 29.7874 179.084 30.2561 177.997C30.7248 176.909 31.0857 175.4 30.4905 174.289C30.3622 174.021 30.1787 173.783 29.9521 173.591C29.7254 173.399 29.4607 173.257 29.1752 173.174C28.8898 173.091 28.5901 173.07 28.2958 173.111C28.0015 173.152 27.7192 173.255 27.4674 173.413C25.9863 174.411 25.9394 177.631 26.38 179.164C26.4081 179.257 26.8487 180.321 27.1018 180.898C26.6331 180.528 26.1644 180.153 25.6395 179.792C24.1959 178.746 22.6961 177.734 21.2103 176.722L19.8511 175.784C20.0385 175.625 22.2274 173.731 22.7898 172.503C23.2866 171.421 23.6194 169.907 23.0241 168.796C22.8927 168.533 22.7077 168.301 22.481 168.114C22.2543 167.927 21.991 167.79 21.708 167.71C21.425 167.631 21.1285 167.613 20.8378 167.655C20.547 167.698 20.2684 167.8 20.0198 167.957C18.5387 168.951 18.4918 172.175 18.9371 173.703C18.9699 173.816 19.6073 175.348 19.7855 175.728C18.7918 175.034 17.8076 174.322 16.8608 173.61C15.5815 172.633 14.3666 171.574 13.2237 170.441C13.3081 170.366 15.6094 168.398 16.1812 167.16C16.678 166.082 17.0155 164.564 16.4202 163.453C16.2888 163.187 16.103 162.952 15.8748 162.762C15.6465 162.573 15.381 162.434 15.0954 162.354C14.8098 162.274 14.5106 162.255 14.2172 162.298C13.9238 162.341 13.6428 162.446 13.3924 162.605C11.9113 163.603 11.8645 166.823 12.3097 168.351C12.3425 168.473 13.0315 170.118 13.1768 170.404L12.9706 170.212C11.8548 169.044 10.8462 167.778 9.95688 166.429C9.45538 165.689 9.01949 164.957 8.60704 164.236C9.07573 163.912 11.1849 162.412 11.827 161.348C12.4691 160.285 12.9378 158.86 12.4691 157.693C12.3683 157.414 12.2098 157.159 12.004 156.945C11.7983 156.731 11.5498 156.563 11.2748 156.452C10.9999 156.341 10.7045 156.288 10.408 156.299C10.1115 156.309 9.82043 156.381 9.5538 156.512C7.9743 157.341 7.5759 160.538 7.84775 162.108C7.84775 162.192 8.10553 163.045 8.31645 163.659C8.13834 163.331 7.94617 162.994 7.78213 162.675C7.15408 161.48 6.65257 160.331 6.21668 159.342C5.97765 158.766 5.74799 158.241 5.57926 157.749C5.86985 157.196 7.01816 154.937 7.09315 153.727C7.16814 152.518 6.89629 150.995 5.9589 150.175C5.74082 149.974 5.48288 149.821 5.20183 149.726C4.92078 149.631 4.62293 149.597 4.32762 149.624C4.03232 149.652 3.74619 149.742 3.48783 149.888C3.22946 150.033 3.00465 150.232 2.82801 150.47C1.80625 151.932 2.92643 154.951 3.89195 156.221C3.97631 156.333 5.47614 157.894 5.4902 157.866V157.833C5.66362 158.302 5.85579 158.822 6.07139 159.375C6.48853 160.392 6.9666 161.541 7.56653 162.755C8.20492 164.07 8.92013 165.347 9.70847 166.579C10.5803 167.963 11.5732 169.266 12.6753 170.474L12.7175 170.516C12.2488 170.254 10.9693 169.579 10.8427 169.532C9.35695 168.951 6.15575 168.702 5.02151 170.085C4.84029 170.319 4.71049 170.589 4.64056 170.877C4.57064 171.165 4.56215 171.465 4.61565 171.756C4.66916 172.047 4.78345 172.324 4.9511 172.568C5.11874 172.813 5.33597 173.019 5.58863 173.174C6.65257 173.881 8.1899 173.675 9.31477 173.277Z"/>
</mask>
<path d="M9.31477 173.277C10.5802 172.832 12.6753 170.811 12.8394 170.647C13.9926 171.85 15.2249 172.974 16.528 174.013C17.2826 174.617 18.0606 175.208 18.8715 175.789C18.4684 175.578 18.1122 175.391 18.0606 175.372C16.5749 174.791 13.3737 174.542 12.2347 175.925C12.0489 176.159 11.9149 176.43 11.8416 176.72C11.7683 177.009 11.7575 177.311 11.8098 177.606C11.8621 177.9 11.9763 178.18 12.1449 178.427C12.3135 178.673 12.5327 178.881 12.7878 179.037C13.8377 179.735 15.3797 179.539 16.4999 179.14C17.6201 178.742 19.4621 177.054 19.9401 176.6C20.2448 176.82 20.5447 177.045 20.8494 177.261C22.3164 178.311 23.7881 179.351 25.1989 180.415C25.6957 180.79 26.1691 181.179 26.6472 181.563C26.291 181.376 25.991 181.221 25.9441 181.202C24.4584 180.621 21.2572 180.373 20.1182 181.756C19.9371 181.991 19.8076 182.261 19.738 182.55C19.6683 182.838 19.6602 183.138 19.7142 183.43C19.7681 183.722 19.8829 183.999 20.051 184.243C20.2191 184.488 20.4369 184.694 20.69 184.849C21.7399 185.543 23.2819 185.346 24.4021 184.952C25.5223 184.558 27.1862 183.026 27.7533 182.491C28.222 182.899 28.6907 183.307 29.1594 183.729C29.4547 184.019 29.7593 184.282 30.0405 184.591L30.8889 185.491C31.4044 186.077 31.9434 186.682 32.4309 187.272C32.7777 187.68 33.0964 188.069 33.4198 188.467C32.9511 188.088 31.9528 187.366 31.8685 187.314C30.4624 186.517 27.3549 185.782 26.0285 186.981C25.8137 187.186 25.6444 187.433 25.5316 187.707C25.4189 187.981 25.3652 188.276 25.374 188.573C25.3828 188.869 25.4541 189.16 25.583 189.427C25.7119 189.694 25.8956 189.931 26.1222 190.122C27.0596 190.965 28.611 191.008 29.7781 190.787C31.067 190.539 33.3589 188.936 33.6448 188.734C34.1744 189.391 34.69 190.037 35.1634 190.651C36.4429 192.301 37.5069 193.768 38.3271 194.954L39.377 194.401C38.5052 193.201 37.371 191.692 35.993 189.995C35.454 189.325 34.8634 188.622 34.2541 187.905C34.8376 187.221 35.3792 186.503 35.8758 185.754C37.146 186.222 39.7566 186.133 40.0941 186.124C40.1785 186.967 40.2488 187.783 40.305 188.561C40.455 190.581 40.53 192.353 40.5722 193.773L41.7111 193.168C41.6408 191.837 41.533 190.253 41.3596 188.481C41.2799 187.624 41.1768 186.714 41.0596 185.777C41.3877 185.683 44.0827 184.896 45.0763 184.043C45.9856 183.269 46.923 182.032 46.848 180.762C46.8401 180.465 46.7699 180.174 46.6419 179.906C46.5139 179.638 46.331 179.401 46.1051 179.208C45.8792 179.016 45.6154 178.873 45.3307 178.79C45.0461 178.706 44.747 178.683 44.453 178.723C42.6954 179.009 41.3033 181.91 41.0643 183.485C41.0643 183.579 41.008 184.605 40.994 185.252C40.9471 184.872 40.9002 184.502 40.8487 184.108C40.7409 183.33 40.6143 182.557 40.4831 181.727C40.405 181.331 40.3253 180.927 40.2441 180.518C40.1738 180.11 40.0472 179.693 39.9488 179.276C39.7051 178.311 39.4051 177.35 39.0864 176.384C39.766 176.295 42.1751 175.916 43.1922 175.302C44.2092 174.688 45.3201 173.591 45.4372 172.339C45.474 172.045 45.4486 171.746 45.3626 171.462C45.2766 171.178 45.132 170.916 44.938 170.691C44.744 170.467 44.5051 170.286 44.2367 170.159C43.9682 170.033 43.6762 169.965 43.3796 169.958C41.5986 169.958 39.7847 172.635 39.3067 174.177C39.2786 174.275 39.0583 175.405 38.9505 176.028C38.7536 175.447 38.5614 174.87 38.3412 174.294C37.7131 172.625 37.0194 170.957 36.3398 169.288L35.7258 167.756C35.9696 167.723 38.8427 167.352 39.9816 166.649C40.994 166.021 42.1095 164.939 42.222 163.687C42.266 163.39 42.2462 163.087 42.164 162.799C42.0818 162.51 41.9391 162.242 41.7453 162.013C41.5516 161.784 41.3112 161.598 41.0402 161.469C40.7692 161.34 40.4739 161.27 40.1738 161.264C38.388 161.264 36.5742 163.94 36.1008 165.459C36.0633 165.576 35.754 167.203 35.693 167.62C35.2243 166.495 34.8072 165.365 34.4229 164.24C33.897 162.72 33.4696 161.167 33.1433 159.591C33.2558 159.591 36.2601 159.202 37.4272 158.48C38.4349 157.852 39.5504 156.769 39.6676 155.518C39.7051 155.224 39.6804 154.925 39.5949 154.641C39.5095 154.357 39.3653 154.095 39.1717 153.87C38.9781 153.645 38.7394 153.464 38.4712 153.338C38.2029 153.212 37.9111 153.143 37.6147 153.137C35.8289 153.137 34.0151 155.813 33.5417 157.332C33.5042 157.454 33.1667 159.207 33.1293 159.525C33.1293 159.432 33.0824 159.342 33.0636 159.249C32.7799 157.658 32.6372 156.046 32.6371 154.431C32.6371 153.54 32.6652 152.687 32.7215 151.857C33.2886 151.857 35.8758 151.764 37.0007 151.229C38.1256 150.695 39.2973 149.762 39.5551 148.53C39.6239 148.241 39.6315 147.942 39.5773 147.65C39.5231 147.359 39.4084 147.082 39.2405 146.838C39.0726 146.594 38.8554 146.387 38.6028 146.232C38.3502 146.077 38.0678 145.977 37.774 145.938C35.9977 145.76 33.9026 148.202 33.2605 149.664C33.2277 149.744 32.9605 150.601 32.7918 151.206C32.8246 150.836 32.848 150.447 32.8855 150.09C33.0214 148.745 33.2324 147.527 33.4245 146.444C33.537 145.83 33.6542 145.282 33.7667 144.766C34.3197 144.461 36.5179 143.219 37.2538 142.244C37.9896 141.27 38.6224 139.901 38.2755 138.673C38.2043 138.384 38.0728 138.113 37.8895 137.878C37.7062 137.643 37.4753 137.449 37.212 137.31C36.9487 137.17 36.6588 137.088 36.3615 137.069C36.0642 137.049 35.7661 137.093 35.4868 137.197C33.8276 137.853 33.0964 140.988 33.1996 142.577C33.1996 142.718 33.5979 144.85 33.6261 144.832H33.6589C33.5417 145.324 33.4198 145.853 33.298 146.439C33.0824 147.517 32.8293 148.736 32.6793 150.081C32.4833 151.528 32.3722 152.985 32.3465 154.445C32.3105 156.081 32.4203 157.717 32.6746 159.333C32.6746 159.333 32.6746 159.371 32.6746 159.389C32.4403 158.921 31.7372 157.636 31.6716 157.547C30.7342 156.244 28.2173 154.266 26.5159 154.796C26.2358 154.892 25.9791 155.047 25.7624 155.249C25.5458 155.451 25.374 155.696 25.2582 155.969C25.1424 156.241 25.0852 156.535 25.0903 156.831C25.0955 157.128 25.1628 157.419 25.288 157.688C25.7801 158.846 27.1627 159.535 28.3298 159.825C29.6328 160.149 32.4918 159.619 32.7215 159.577C33.0187 161.215 33.4258 162.831 33.9401 164.414C34.2354 165.351 34.5588 166.26 34.8775 167.179C34.6619 166.781 34.465 166.429 34.4322 166.382C33.4948 165.079 30.9779 163.101 29.2766 163.631C28.9965 163.727 28.7397 163.882 28.5231 164.084C28.3064 164.286 28.1346 164.531 28.0188 164.804C27.903 165.076 27.8458 165.37 27.851 165.666C27.8561 165.963 27.9234 166.254 28.0486 166.523C28.5407 167.685 29.9234 168.37 31.0857 168.66C32.2481 168.951 34.7088 168.552 35.3556 168.435C35.4915 168.787 35.618 169.138 35.754 169.49C36.3961 171.177 37.0476 172.855 37.6287 174.519C37.835 175.105 38.0178 175.691 38.2052 176.276C38.0131 175.925 37.8443 175.63 37.8162 175.587C36.8788 174.285 34.3572 172.307 32.6606 172.836C32.38 172.932 32.1228 173.086 31.9056 173.288C31.6884 173.49 31.5161 173.735 31.3999 174.008C31.2836 174.28 31.226 174.574 31.2309 174.871C31.2357 175.167 31.3028 175.459 31.4279 175.728C31.9247 176.886 33.3027 177.575 34.4697 177.865C35.6368 178.156 37.8537 177.79 38.6224 177.659C38.7958 178.264 38.9692 178.868 39.0911 179.464C39.1754 179.871 39.2879 180.26 39.3535 180.673C39.4192 181.085 39.4942 181.488 39.5645 181.887C39.6676 182.665 39.7847 183.466 39.8691 184.23C39.93 184.76 39.9816 185.266 40.0332 185.772C39.8316 185.186 39.4192 184.047 39.3723 183.954C38.7058 182.726 37.7382 181.687 36.5601 180.935C36.4907 180.796 36.4091 180.662 36.3164 180.537C36.1462 180.294 35.9269 180.09 35.6726 179.937C35.4182 179.784 35.1347 179.687 34.8403 179.651C34.5458 179.615 34.2472 179.642 33.9637 179.729C33.6802 179.816 33.4183 179.962 33.1949 180.157C31.8825 181.367 32.3278 184.554 32.9933 186.002C33.0355 186.086 33.5651 186.963 33.9307 187.511C33.6776 187.221 33.462 186.935 33.1761 186.639C32.6606 186.049 32.1262 185.472 31.5591 184.854L30.692 183.972C30.4108 183.677 30.0733 183.396 29.7546 183.101C29.0188 182.435 28.2407 181.793 27.444 181.17C27.9595 180.701 29.7874 179.084 30.2561 177.997C30.7248 176.909 31.0857 175.4 30.4905 174.289C30.3622 174.021 30.1787 173.783 29.9521 173.591C29.7254 173.399 29.4607 173.257 29.1752 173.174C28.8898 173.091 28.5901 173.07 28.2958 173.111C28.0015 173.152 27.7192 173.255 27.4674 173.413C25.9863 174.411 25.9394 177.631 26.38 179.164C26.4081 179.257 26.8487 180.321 27.1018 180.898C26.6331 180.528 26.1644 180.153 25.6395 179.792C24.1959 178.746 22.6961 177.734 21.2103 176.722L19.8511 175.784C20.0385 175.625 22.2274 173.731 22.7898 172.503C23.2866 171.421 23.6194 169.907 23.0241 168.796C22.8927 168.533 22.7077 168.301 22.481 168.114C22.2543 167.927 21.991 167.79 21.708 167.71C21.425 167.631 21.1285 167.613 20.8378 167.655C20.547 167.698 20.2684 167.8 20.0198 167.957C18.5387 168.951 18.4918 172.175 18.9371 173.703C18.9699 173.816 19.6073 175.348 19.7855 175.728C18.7918 175.034 17.8076 174.322 16.8608 173.61C15.5815 172.633 14.3666 171.574 13.2237 170.441C13.3081 170.366 15.6094 168.398 16.1812 167.16C16.678 166.082 17.0155 164.564 16.4202 163.453C16.2888 163.187 16.103 162.952 15.8748 162.762C15.6465 162.573 15.381 162.434 15.0954 162.354C14.8098 162.274 14.5106 162.255 14.2172 162.298C13.9238 162.341 13.6428 162.446 13.3924 162.605C11.9113 163.603 11.8645 166.823 12.3097 168.351C12.3425 168.473 13.0315 170.118 13.1768 170.404L12.9706 170.212C11.8548 169.044 10.8462 167.778 9.95688 166.429C9.45538 165.689 9.01949 164.957 8.60704 164.236C9.07573 163.912 11.1849 162.412 11.827 161.348C12.4691 160.285 12.9378 158.86 12.4691 157.693C12.3683 157.414 12.2098 157.159 12.004 156.945C11.7983 156.731 11.5498 156.563 11.2748 156.452C10.9999 156.341 10.7045 156.288 10.408 156.299C10.1115 156.309 9.82043 156.381 9.5538 156.512C7.9743 157.341 7.5759 160.538 7.84775 162.108C7.84775 162.192 8.10553 163.045 8.31645 163.659C8.13834 163.331 7.94617 162.994 7.78213 162.675C7.15408 161.48 6.65257 160.331 6.21668 159.342C5.97765 158.766 5.74799 158.241 5.57926 157.749C5.86985 157.196 7.01816 154.937 7.09315 153.727C7.16814 152.518 6.89629 150.995 5.9589 150.175C5.74082 149.974 5.48288 149.821 5.20183 149.726C4.92078 149.631 4.62293 149.597 4.32762 149.624C4.03232 149.652 3.74619 149.742 3.48783 149.888C3.22946 150.033 3.00465 150.232 2.82801 150.47C1.80625 151.932 2.92643 154.951 3.89195 156.221C3.97631 156.333 5.47614 157.894 5.4902 157.866V157.833C5.66362 158.302 5.85579 158.822 6.07139 159.375C6.48853 160.392 6.9666 161.541 7.56653 162.755C8.20492 164.07 8.92013 165.347 9.70847 166.579C10.5803 167.963 11.5732 169.266 12.6753 170.474L12.7175 170.516C12.2488 170.254 10.9693 169.579 10.8427 169.532C9.35695 168.951 6.15575 168.702 5.02151 170.085C4.84029 170.319 4.71049 170.589 4.64056 170.877C4.57064 171.165 4.56215 171.465 4.61565 171.756C4.66916 172.047 4.78345 172.324 4.9511 172.568C5.11874 172.813 5.33597 173.019 5.58863 173.174C6.65257 173.881 8.1899 173.675 9.31477 173.277Z" fill="#334155" stroke="#334155" stroke-width="2" mask="url(#path-2-inside-1_136_4880)"/>
<path d="M26.2648 147.732L26.2658 147.739C26.3343 148.233 26.6027 148.715 27.0017 149.155C27.3992 149.594 27.9028 149.965 28.386 150.235L28.387 150.235C28.9069 150.527 29.905 150.75 30.8473 150.898C31.2253 150.957 31.5784 151.003 31.8628 151.035C31.8346 150.911 31.8038 150.777 31.7722 150.642C31.709 150.372 31.6434 150.098 31.5908 149.884C31.5645 149.777 31.5417 149.686 31.5243 149.618C31.5132 149.575 31.5061 149.549 31.5025 149.536L26.2648 147.732ZM26.2648 147.732L26.2636 147.725C26.2261 147.502 26.2358 147.273 26.292 147.054C26.3483 146.835 26.4499 146.63 26.5902 146.452C26.7306 146.275 26.9066 146.129 27.107 146.023C27.3049 145.919 27.5222 145.858 27.7452 145.842C28.4082 145.823 29.2 146.308 29.9485 147.107C30.6797 147.888 31.2565 148.849 31.5003 149.527L26.2648 147.732Z" fill="#334155" stroke="#334155"/>
<path d="M217.407 164.448C217.066 164.292 216.754 164.137 216.502 164.009C216.595 163.92 216.694 163.824 216.794 163.728C216.994 163.535 217.198 163.341 217.357 163.189C217.437 163.114 217.505 163.049 217.556 163.002C217.589 162.972 217.609 162.953 217.619 162.944C217.622 162.941 217.625 162.939 217.626 162.938C218.208 162.515 219.217 162.036 220.251 161.789C221.319 161.533 222.247 161.563 222.787 161.944C222.965 162.08 223.113 162.251 223.221 162.447C223.33 162.645 223.396 162.864 223.415 163.089C223.434 163.315 223.405 163.542 223.33 163.755C223.256 163.968 223.137 164.164 222.981 164.328L222.977 164.333L222.972 164.339C222.634 164.718 222.144 164.97 221.571 165.117C221.001 165.263 220.38 165.295 219.828 165.256C219.228 165.211 218.272 164.845 217.407 164.448Z" fill="#334155" stroke="#334155"/>
<mask id="path-5-inside-2_136_4880" fill="white">
<path d="M214.608 173.277C213.343 172.831 211.248 170.811 211.079 170.647C209.927 171.851 208.695 172.975 207.39 174.013C206.636 174.617 205.858 175.208 205.07 175.789C205.469 175.578 205.83 175.391 205.881 175.372C207.367 174.791 210.568 174.542 211.702 175.925C211.883 176.16 212.013 176.43 212.083 176.718C212.152 177.006 212.16 177.306 212.106 177.597C212.052 177.888 211.938 178.165 211.769 178.409C211.601 178.653 211.384 178.859 211.131 179.014C210.081 179.712 208.543 179.515 207.419 179.117C206.294 178.718 204.456 177.031 203.983 176.576L203.069 177.237C201.602 178.287 200.135 179.328 198.724 180.392C198.227 180.767 197.749 181.156 197.271 181.54C197.627 181.352 197.927 181.198 197.979 181.179C199.46 180.598 202.666 180.349 203.8 181.732C203.981 181.967 204.111 182.238 204.18 182.526C204.25 182.815 204.258 183.114 204.204 183.406C204.15 183.698 204.036 183.975 203.867 184.22C203.699 184.464 203.482 184.671 203.228 184.825C202.179 185.519 200.637 185.322 199.516 184.929C198.396 184.535 196.732 183.002 196.165 182.468C195.696 182.876 195.228 183.283 194.759 183.705C194.459 183.996 194.154 184.258 193.873 184.568C193.592 184.877 193.306 185.168 193.03 185.468C192.509 186.053 191.975 186.658 191.483 187.249C191.141 187.656 190.817 188.045 190.494 188.444C190.986 188.064 191.961 187.342 192.05 187.291C193.428 186.494 196.564 185.758 197.885 186.958C198.1 187.162 198.269 187.41 198.382 187.684C198.495 187.958 198.549 188.253 198.54 188.549C198.531 188.845 198.46 189.137 198.331 189.403C198.202 189.67 198.018 189.907 197.792 190.098C196.854 190.942 195.307 190.984 194.136 190.764C192.851 190.515 190.56 188.912 190.274 188.711C189.739 189.367 189.228 190.014 188.75 190.628C187.475 192.278 186.407 193.745 185.587 194.931L184.532 194.377C185.404 193.178 186.543 191.668 187.916 189.972C188.455 189.301 189.046 188.598 189.66 187.881C189.076 187.197 188.533 186.479 188.033 185.73C186.763 186.199 184.152 186.11 183.815 186.1C183.735 186.944 183.66 187.759 183.604 188.538C183.454 190.558 183.379 192.329 183.342 193.749L182.198 193.145C182.268 191.814 182.381 190.23 182.549 188.458C182.634 187.6 182.737 186.691 182.849 185.753C182.521 185.66 179.831 184.872 178.833 184.019C177.928 183.246 176.991 182.009 177.066 180.738C177.073 180.442 177.143 180.151 177.27 179.883C177.398 179.615 177.58 179.377 177.806 179.185C178.031 178.993 178.295 178.85 178.579 178.766C178.863 178.683 179.162 178.66 179.456 178.7C181.218 178.985 182.606 181.887 182.845 183.462C182.845 183.555 182.901 184.582 182.915 185.229C182.967 184.849 183.009 184.479 183.065 184.085C183.168 183.307 183.295 182.534 183.431 181.704C183.506 181.306 183.585 180.902 183.665 180.495C183.745 180.087 183.862 179.67 183.96 179.253C184.209 178.287 184.504 177.326 184.823 176.361C184.143 176.272 181.734 175.892 180.717 175.278C179.7 174.664 178.589 173.567 178.477 172.316C178.439 172.022 178.464 171.723 178.549 171.439C178.635 171.155 178.779 170.893 178.972 170.668C179.166 170.443 179.405 170.262 179.673 170.136C179.941 170.01 180.233 169.941 180.529 169.935C182.315 169.935 184.129 172.611 184.602 174.153C184.635 174.252 184.851 175.381 184.959 176.005C185.155 175.423 185.352 174.847 185.568 174.27C186.201 172.602 186.89 170.933 187.569 169.265C187.78 168.754 187.982 168.243 188.183 167.732C187.944 167.699 185.066 167.329 183.927 166.626C182.92 165.998 181.804 164.915 181.687 163.664C181.65 163.37 181.674 163.071 181.76 162.787C181.845 162.503 181.989 162.24 182.183 162.016C182.377 161.791 182.615 161.61 182.884 161.484C183.152 161.357 183.444 161.289 183.74 161.283C185.526 161.283 187.34 163.959 187.818 165.478C187.85 165.595 188.164 167.221 188.221 167.638C188.689 166.513 189.107 165.384 189.496 164.259C190.023 162.738 190.452 161.185 190.78 159.61C190.667 159.61 187.668 159.221 186.501 158.499C185.488 157.871 184.373 156.788 184.256 155.537C184.219 155.242 184.244 154.943 184.33 154.66C184.416 154.376 184.561 154.113 184.755 153.888C184.949 153.664 185.188 153.483 185.456 153.357C185.725 153.23 186.017 153.162 186.313 153.156C188.099 153.156 189.908 155.832 190.386 157.35C190.424 157.472 190.756 159.225 190.794 159.544C190.794 159.45 190.845 159.361 190.859 159.267C191.146 157.677 191.288 156.065 191.286 154.449C191.286 153.559 191.258 152.706 191.202 151.876C190.635 151.876 188.047 151.782 186.927 151.248C185.807 150.714 184.626 149.781 184.373 148.548C184.303 148.26 184.295 147.96 184.349 147.669C184.403 147.377 184.517 147.1 184.685 146.855C184.853 146.611 185.071 146.404 185.324 146.25C185.577 146.095 185.86 145.995 186.154 145.956C187.93 145.778 190.025 148.22 190.663 149.683C190.7 149.762 190.963 150.62 191.131 151.225C191.099 150.854 191.075 150.465 191.038 150.109C190.902 148.764 190.695 147.545 190.499 146.463C190.386 145.849 190.269 145.3 190.156 144.785C189.608 144.48 187.41 143.238 186.674 142.263C185.938 141.288 185.305 139.92 185.648 138.692C185.719 138.404 185.85 138.135 186.033 137.901C186.215 137.667 186.444 137.475 186.706 137.335C186.968 137.196 187.256 137.114 187.551 137.093C187.847 137.072 188.144 137.114 188.422 137.215C190.081 137.871 190.813 141.007 190.71 142.596C190.71 142.736 190.311 144.869 190.283 144.85H190.25C190.367 145.342 190.494 145.872 190.616 146.458C190.831 147.536 191.084 148.755 191.234 150.1C191.429 151.547 191.538 153.004 191.563 154.463C191.6 156.099 191.492 157.735 191.239 159.352V159.408C191.473 158.939 192.177 157.655 192.242 157.566C193.18 156.263 195.696 154.285 197.398 154.815C197.678 154.911 197.936 155.064 198.153 155.266C198.37 155.468 198.542 155.714 198.658 155.986C198.774 156.259 198.831 156.554 198.825 156.85C198.82 157.146 198.752 157.438 198.626 157.707C198.134 158.864 196.751 159.553 195.589 159.844C194.286 160.167 191.422 159.638 191.192 159.595C190.895 161.233 190.488 162.849 189.974 164.432C189.678 165.37 189.355 166.279 189.036 167.198C189.252 166.799 189.449 166.448 189.482 166.401C190.419 165.098 192.941 163.12 194.637 163.65C194.918 163.746 195.175 163.899 195.392 164.101C195.609 164.303 195.782 164.548 195.898 164.821C196.014 165.094 196.072 165.388 196.067 165.684C196.062 165.981 195.995 166.273 195.87 166.542C195.373 167.704 193.995 168.388 192.828 168.679C191.661 168.969 189.205 168.571 188.558 168.454L188.164 169.508C187.518 171.196 186.866 172.874 186.29 174.538C186.083 175.123 185.901 175.709 185.718 176.295C185.91 175.944 186.074 175.648 186.102 175.606C187.04 174.303 189.561 172.325 191.258 172.855C191.538 172.951 191.795 173.106 192.011 173.308C192.228 173.51 192.4 173.755 192.516 174.027C192.631 174.3 192.689 174.594 192.683 174.89C192.678 175.186 192.611 175.478 192.486 175.747C191.989 176.904 190.611 177.593 189.444 177.884C188.277 178.175 186.06 177.809 185.291 177.678C185.123 178.282 184.949 178.887 184.823 179.482C184.738 179.89 184.626 180.279 184.565 180.692C184.504 181.104 184.424 181.507 184.354 181.905C184.246 182.683 184.134 183.485 184.049 184.249C183.984 184.779 183.932 185.285 183.881 185.791C184.082 185.205 184.499 184.066 184.541 183.972C185.199 182.729 186.164 181.676 187.344 180.912C187.41 180.77 187.492 180.637 187.588 180.513C187.758 180.271 187.977 180.066 188.231 179.914C188.484 179.761 188.768 179.664 189.062 179.628C189.356 179.592 189.654 179.619 189.937 179.706C190.22 179.793 190.482 179.939 190.705 180.134C192.017 181.343 191.577 184.53 190.906 185.978C190.864 186.063 190.335 186.939 189.969 187.488C190.222 187.197 190.466 186.911 190.728 186.616C191.244 186.025 191.773 185.449 192.345 184.83L193.208 183.949C193.494 183.654 193.831 183.372 194.145 183.077C194.881 182.412 195.659 181.77 196.46 181.146C195.945 180.677 194.117 179.06 193.648 177.973C193.18 176.886 192.814 175.377 193.409 174.266C193.54 173.999 193.726 173.764 193.954 173.574C194.182 173.384 194.447 173.244 194.733 173.164C195.018 173.083 195.318 173.064 195.611 173.107C195.905 173.15 196.186 173.254 196.437 173.413C197.918 174.411 197.96 177.631 197.52 179.164C197.492 179.257 197.051 180.321 196.798 180.898C197.267 180.527 197.759 180.153 198.26 179.792C199.708 178.746 201.204 177.734 202.694 176.722L204.049 175.784C203.866 175.625 201.672 173.731 201.11 172.503C200.613 171.421 200.28 169.907 200.876 168.796C201.006 168.53 201.192 168.294 201.42 168.104C201.648 167.914 201.914 167.775 202.2 167.695C202.485 167.615 202.785 167.596 203.079 167.639C203.372 167.683 203.653 167.788 203.903 167.948C205.38 168.941 205.427 172.166 204.986 173.694C204.953 173.806 204.316 175.339 204.133 175.719C205.131 175.025 206.116 174.313 207.058 173.6C208.338 172.625 209.553 171.566 210.695 170.432C210.61 170.357 208.314 168.388 207.737 167.151C207.24 166.073 206.908 164.554 207.503 163.444C207.634 163.178 207.819 162.943 208.047 162.753C208.275 162.564 208.54 162.425 208.825 162.345C209.11 162.265 209.409 162.246 209.702 162.289C209.995 162.332 210.276 162.436 210.526 162.595C212.007 163.593 212.054 166.813 211.609 168.341C211.576 168.463 210.892 170.108 210.746 170.394L210.953 170.202C212.065 169.033 213.072 167.767 213.962 166.42C214.463 165.679 214.899 164.948 215.311 164.226C214.843 163.903 212.734 162.403 212.096 161.339C211.459 160.275 210.985 158.85 211.454 157.683C211.555 157.404 211.713 157.15 211.919 156.936C212.125 156.722 212.373 156.554 212.648 156.443C212.923 156.331 213.219 156.279 213.515 156.289C213.812 156.299 214.103 156.372 214.369 156.502C215.949 157.332 216.347 160.528 216.075 162.098C216.075 162.183 215.813 163.036 215.607 163.65C215.785 163.322 215.977 162.984 216.146 162.665C216.774 161.47 217.271 160.322 217.706 159.333C217.95 158.757 218.175 158.232 218.349 157.739C218.053 157.186 216.91 154.927 216.83 153.718C216.75 152.509 216.994 150.995 217.945 150.175C218.164 149.974 218.422 149.821 218.703 149.726C218.984 149.631 219.281 149.597 219.577 149.624C219.872 149.652 220.158 149.742 220.417 149.888C220.675 150.033 220.9 150.232 221.076 150.47C222.098 151.932 220.978 154.951 220.017 156.221C219.933 156.333 218.428 157.894 218.414 157.866V157.833C218.245 158.302 218.053 158.822 217.833 159.375C217.421 160.392 216.942 161.541 216.338 162.755C215.702 164.07 214.99 165.347 214.205 166.579C213.337 167.965 212.344 169.268 211.238 170.474L211.196 170.516C211.665 170.254 212.944 169.579 213.071 169.532C214.552 168.951 217.758 168.702 218.892 170.085C219.073 170.32 219.203 170.59 219.272 170.878C219.342 171.166 219.35 171.466 219.296 171.757C219.242 172.048 219.127 172.325 218.959 172.569C218.791 172.813 218.573 173.019 218.32 173.174C217.271 173.881 215.729 173.675 214.608 173.277Z"/>
</mask>
<path d="M214.608 173.277C213.343 172.831 211.248 170.811 211.079 170.647C209.927 171.851 208.695 172.975 207.39 174.013C206.636 174.617 205.858 175.208 205.07 175.789C205.469 175.578 205.83 175.391 205.881 175.372C207.367 174.791 210.568 174.542 211.702 175.925C211.883 176.16 212.013 176.43 212.083 176.718C212.152 177.006 212.16 177.306 212.106 177.597C212.052 177.888 211.938 178.165 211.769 178.409C211.601 178.653 211.384 178.859 211.131 179.014C210.081 179.712 208.543 179.515 207.419 179.117C206.294 178.718 204.456 177.031 203.983 176.576L203.069 177.237C201.602 178.287 200.135 179.328 198.724 180.392C198.227 180.767 197.749 181.156 197.271 181.54C197.627 181.352 197.927 181.198 197.979 181.179C199.46 180.598 202.666 180.349 203.8 181.732C203.981 181.967 204.111 182.238 204.18 182.526C204.25 182.815 204.258 183.114 204.204 183.406C204.15 183.698 204.036 183.975 203.867 184.22C203.699 184.464 203.482 184.671 203.228 184.825C202.179 185.519 200.637 185.322 199.516 184.929C198.396 184.535 196.732 183.002 196.165 182.468C195.696 182.876 195.228 183.283 194.759 183.705C194.459 183.996 194.154 184.258 193.873 184.568C193.592 184.877 193.306 185.168 193.03 185.468C192.509 186.053 191.975 186.658 191.483 187.249C191.141 187.656 190.817 188.045 190.494 188.444C190.986 188.064 191.961 187.342 192.05 187.291C193.428 186.494 196.564 185.758 197.885 186.958C198.1 187.162 198.269 187.41 198.382 187.684C198.495 187.958 198.549 188.253 198.54 188.549C198.531 188.845 198.46 189.137 198.331 189.403C198.202 189.67 198.018 189.907 197.792 190.098C196.854 190.942 195.307 190.984 194.136 190.764C192.851 190.515 190.56 188.912 190.274 188.711C189.739 189.367 189.228 190.014 188.75 190.628C187.475 192.278 186.407 193.745 185.587 194.931L184.532 194.377C185.404 193.178 186.543 191.668 187.916 189.972C188.455 189.301 189.046 188.598 189.66 187.881C189.076 187.197 188.533 186.479 188.033 185.73C186.763 186.199 184.152 186.11 183.815 186.1C183.735 186.944 183.66 187.759 183.604 188.538C183.454 190.558 183.379 192.329 183.342 193.749L182.198 193.145C182.268 191.814 182.381 190.23 182.549 188.458C182.634 187.6 182.737 186.691 182.849 185.753C182.521 185.66 179.831 184.872 178.833 184.019C177.928 183.246 176.991 182.009 177.066 180.738C177.073 180.442 177.143 180.151 177.27 179.883C177.398 179.615 177.58 179.377 177.806 179.185C178.031 178.993 178.295 178.85 178.579 178.766C178.863 178.683 179.162 178.66 179.456 178.7C181.218 178.985 182.606 181.887 182.845 183.462C182.845 183.555 182.901 184.582 182.915 185.229C182.967 184.849 183.009 184.479 183.065 184.085C183.168 183.307 183.295 182.534 183.431 181.704C183.506 181.306 183.585 180.902 183.665 180.495C183.745 180.087 183.862 179.67 183.96 179.253C184.209 178.287 184.504 177.326 184.823 176.361C184.143 176.272 181.734 175.892 180.717 175.278C179.7 174.664 178.589 173.567 178.477 172.316C178.439 172.022 178.464 171.723 178.549 171.439C178.635 171.155 178.779 170.893 178.972 170.668C179.166 170.443 179.405 170.262 179.673 170.136C179.941 170.01 180.233 169.941 180.529 169.935C182.315 169.935 184.129 172.611 184.602 174.153C184.635 174.252 184.851 175.381 184.959 176.005C185.155 175.423 185.352 174.847 185.568 174.27C186.201 172.602 186.89 170.933 187.569 169.265C187.78 168.754 187.982 168.243 188.183 167.732C187.944 167.699 185.066 167.329 183.927 166.626C182.92 165.998 181.804 164.915 181.687 163.664C181.65 163.37 181.674 163.071 181.76 162.787C181.845 162.503 181.989 162.24 182.183 162.016C182.377 161.791 182.615 161.61 182.884 161.484C183.152 161.357 183.444 161.289 183.74 161.283C185.526 161.283 187.34 163.959 187.818 165.478C187.85 165.595 188.164 167.221 188.221 167.638C188.689 166.513 189.107 165.384 189.496 164.259C190.023 162.738 190.452 161.185 190.78 159.61C190.667 159.61 187.668 159.221 186.501 158.499C185.488 157.871 184.373 156.788 184.256 155.537C184.219 155.242 184.244 154.943 184.33 154.66C184.416 154.376 184.561 154.113 184.755 153.888C184.949 153.664 185.188 153.483 185.456 153.357C185.725 153.23 186.017 153.162 186.313 153.156C188.099 153.156 189.908 155.832 190.386 157.35C190.424 157.472 190.756 159.225 190.794 159.544C190.794 159.45 190.845 159.361 190.859 159.267C191.146 157.677 191.288 156.065 191.286 154.449C191.286 153.559 191.258 152.706 191.202 151.876C190.635 151.876 188.047 151.782 186.927 151.248C185.807 150.714 184.626 149.781 184.373 148.548C184.303 148.26 184.295 147.96 184.349 147.669C184.403 147.377 184.517 147.1 184.685 146.855C184.853 146.611 185.071 146.404 185.324 146.25C185.577 146.095 185.86 145.995 186.154 145.956C187.93 145.778 190.025 148.22 190.663 149.683C190.7 149.762 190.963 150.62 191.131 151.225C191.099 150.854 191.075 150.465 191.038 150.109C190.902 148.764 190.695 147.545 190.499 146.463C190.386 145.849 190.269 145.3 190.156 144.785C189.608 144.48 187.41 143.238 186.674 142.263C185.938 141.288 185.305 139.92 185.648 138.692C185.719 138.404 185.85 138.135 186.033 137.901C186.215 137.667 186.444 137.475 186.706 137.335C186.968 137.196 187.256 137.114 187.551 137.093C187.847 137.072 188.144 137.114 188.422 137.215C190.081 137.871 190.813 141.007 190.71 142.596C190.71 142.736 190.311 144.869 190.283 144.85H190.25C190.367 145.342 190.494 145.872 190.616 146.458C190.831 147.536 191.084 148.755 191.234 150.1C191.429 151.547 191.538 153.004 191.563 154.463C191.6 156.099 191.492 157.735 191.239 159.352V159.408C191.473 158.939 192.177 157.655 192.242 157.566C193.18 156.263 195.696 154.285 197.398 154.815C197.678 154.911 197.936 155.064 198.153 155.266C198.37 155.468 198.542 155.714 198.658 155.986C198.774 156.259 198.831 156.554 198.825 156.85C198.82 157.146 198.752 157.438 198.626 157.707C198.134 158.864 196.751 159.553 195.589 159.844C194.286 160.167 191.422 159.638 191.192 159.595C190.895 161.233 190.488 162.849 189.974 164.432C189.678 165.37 189.355 166.279 189.036 167.198C189.252 166.799 189.449 166.448 189.482 166.401C190.419 165.098 192.941 163.12 194.637 163.65C194.918 163.746 195.175 163.899 195.392 164.101C195.609 164.303 195.782 164.548 195.898 164.821C196.014 165.094 196.072 165.388 196.067 165.684C196.062 165.981 195.995 166.273 195.87 166.542C195.373 167.704 193.995 168.388 192.828 168.679C191.661 168.969 189.205 168.571 188.558 168.454L188.164 169.508C187.518 171.196 186.866 172.874 186.29 174.538C186.083 175.123 185.901 175.709 185.718 176.295C185.91 175.944 186.074 175.648 186.102 175.606C187.04 174.303 189.561 172.325 191.258 172.855C191.538 172.951 191.795 173.106 192.011 173.308C192.228 173.51 192.4 173.755 192.516 174.027C192.631 174.3 192.689 174.594 192.683 174.89C192.678 175.186 192.611 175.478 192.486 175.747C191.989 176.904 190.611 177.593 189.444 177.884C188.277 178.175 186.06 177.809 185.291 177.678C185.123 178.282 184.949 178.887 184.823 179.482C184.738 179.89 184.626 180.279 184.565 180.692C184.504 181.104 184.424 181.507 184.354 181.905C184.246 182.683 184.134 183.485 184.049 184.249C183.984 184.779 183.932 185.285 183.881 185.791C184.082 185.205 184.499 184.066 184.541 183.972C185.199 182.729 186.164 181.676 187.344 180.912C187.41 180.77 187.492 180.637 187.588 180.513C187.758 180.271 187.977 180.066 188.231 179.914C188.484 179.761 188.768 179.664 189.062 179.628C189.356 179.592 189.654 179.619 189.937 179.706C190.22 179.793 190.482 179.939 190.705 180.134C192.017 181.343 191.577 184.53 190.906 185.978C190.864 186.063 190.335 186.939 189.969 187.488C190.222 187.197 190.466 186.911 190.728 186.616C191.244 186.025 191.773 185.449 192.345 184.83L193.208 183.949C193.494 183.654 193.831 183.372 194.145 183.077C194.881 182.412 195.659 181.77 196.46 181.146C195.945 180.677 194.117 179.06 193.648 177.973C193.18 176.886 192.814 175.377 193.409 174.266C193.54 173.999 193.726 173.764 193.954 173.574C194.182 173.384 194.447 173.244 194.733 173.164C195.018 173.083 195.318 173.064 195.611 173.107C195.905 173.15 196.186 173.254 196.437 173.413C197.918 174.411 197.96 177.631 197.52 179.164C197.492 179.257 197.051 180.321 196.798 180.898C197.267 180.527 197.759 180.153 198.26 179.792C199.708 178.746 201.204 177.734 202.694 176.722L204.049 175.784C203.866 175.625 201.672 173.731 201.11 172.503C200.613 171.421 200.28 169.907 200.876 168.796C201.006 168.53 201.192 168.294 201.42 168.104C201.648 167.914 201.914 167.775 202.2 167.695C202.485 167.615 202.785 167.596 203.079 167.639C203.372 167.683 203.653 167.788 203.903 167.948C205.38 168.941 205.427 172.166 204.986 173.694C204.953 173.806 204.316 175.339 204.133 175.719C205.131 175.025 206.116 174.313 207.058 173.6C208.338 172.625 209.553 171.566 210.695 170.432C210.61 170.357 208.314 168.388 207.737 167.151C207.24 166.073 206.908 164.554 207.503 163.444C207.634 163.178 207.819 162.943 208.047 162.753C208.275 162.564 208.54 162.425 208.825 162.345C209.11 162.265 209.409 162.246 209.702 162.289C209.995 162.332 210.276 162.436 210.526 162.595C212.007 163.593 212.054 166.813 211.609 168.341C211.576 168.463 210.892 170.108 210.746 170.394L210.953 170.202C212.065 169.033 213.072 167.767 213.962 166.42C214.463 165.679 214.899 164.948 215.311 164.226C214.843 163.903 212.734 162.403 212.096 161.339C211.459 160.275 210.985 158.85 211.454 157.683C211.555 157.404 211.713 157.15 211.919 156.936C212.125 156.722 212.373 156.554 212.648 156.443C212.923 156.331 213.219 156.279 213.515 156.289C213.812 156.299 214.103 156.372 214.369 156.502C215.949 157.332 216.347 160.528 216.075 162.098C216.075 162.183 215.813 163.036 215.607 163.65C215.785 163.322 215.977 162.984 216.146 162.665C216.774 161.47 217.271 160.322 217.706 159.333C217.95 158.757 218.175 158.232 218.349 157.739C218.053 157.186 216.91 154.927 216.83 153.718C216.75 152.509 216.994 150.995 217.945 150.175C218.164 149.974 218.422 149.821 218.703 149.726C218.984 149.631 219.281 149.597 219.577 149.624C219.872 149.652 220.158 149.742 220.417 149.888C220.675 150.033 220.9 150.232 221.076 150.47C222.098 151.932 220.978 154.951 220.017 156.221C219.933 156.333 218.428 157.894 218.414 157.866V157.833C218.245 158.302 218.053 158.822 217.833 159.375C217.421 160.392 216.942 161.541 216.338 162.755C215.702 164.07 214.99 165.347 214.205 166.579C213.337 167.965 212.344 169.268 211.238 170.474L211.196 170.516C211.665 170.254 212.944 169.579 213.071 169.532C214.552 168.951 217.758 168.702 218.892 170.085C219.073 170.32 219.203 170.59 219.272 170.878C219.342 171.166 219.35 171.466 219.296 171.757C219.242 172.048 219.127 172.325 218.959 172.569C218.791 172.813 218.573 173.019 218.32 173.174C217.271 173.881 215.729 173.675 214.608 173.277Z" fill="#334155" stroke="#334155" stroke-width="2" mask="url(#path-5-inside-2_136_4880)"/>
<path d="M197.655 147.724L197.653 147.732L197.652 147.741C197.586 148.234 197.318 148.715 196.919 149.155C196.521 149.594 196.018 149.965 195.536 150.235L195.536 150.235C195.016 150.527 194.017 150.75 193.074 150.898C192.697 150.957 192.344 151.002 192.06 151.035C192.088 150.911 192.119 150.777 192.15 150.642C192.213 150.371 192.279 150.097 192.331 149.882C192.357 149.775 192.379 149.683 192.396 149.615C192.411 149.559 192.419 149.528 192.422 149.517C192.422 149.516 192.422 149.516 192.422 149.515C192.668 148.839 193.244 147.884 193.972 147.107C194.721 146.308 195.513 145.823 196.174 145.842C196.397 145.857 196.615 145.919 196.813 146.022C197.013 146.127 197.19 146.273 197.33 146.451C197.47 146.628 197.572 146.833 197.628 147.053C197.684 147.272 197.693 147.5 197.655 147.724Z" fill="#334155" stroke="#334155"/>
<path d="M38.4065 84.1731L38.7955 84.4309" stroke="#334155" stroke-miterlimit="10"/>
<path d="M39.583 84.9417L111.401 131.638" stroke="#334155" stroke-miterlimit="10" stroke-dasharray="2 2"/>
<path d="M111.795 131.896L112.184 132.149L111.931 131.76" stroke="#334155" stroke-miterlimit="10"/>
<path d="M111.425 130.977L49.8196 36.2537" stroke="#334155" stroke-miterlimit="10" stroke-dasharray="1.98 1.98"/>
<path d="M49.5617 35.8647L49.3086 35.4709" stroke="#334155" stroke-miterlimit="10"/>
<path d="M185.966 84.1731L185.577 84.4309" stroke="#334155" stroke-miterlimit="10"/>
<path d="M184.79 84.9417L112.972 131.638" stroke="#334155" stroke-miterlimit="10" stroke-dasharray="2 2"/>
<path d="M112.578 131.896L112.184 132.149L112.442 131.76" stroke="#334155" stroke-miterlimit="10"/>
<path d="M112.948 130.977L174.554 36.2537" stroke="#334155" stroke-miterlimit="10" stroke-dasharray="1.98 1.98"/>
<path d="M174.807 35.8647L175.064 35.4709" stroke="#334155" stroke-miterlimit="10"/>
<path d="M112.184 20.9319V21.4006" stroke="#334155" stroke-miterlimit="10"/>
<path d="M112.184 22.3425V131.211" stroke="#334155" stroke-miterlimit="10" stroke-dasharray="2.01 2.01"/>
<path d="M112.184 131.68V132.149" stroke="#334155" stroke-miterlimit="10"/>
<path d="M113.061 33.2257C121.02 33.2257 127.473 26.7731 127.473 18.8133C127.473 10.8535 121.02 4.40088 113.061 4.40088C105.101 4.40088 98.6482 10.8535 98.6482 18.8133C98.6482 26.7731 105.101 33.2257 113.061 33.2257Z" fill="#334155" stroke="#334155" stroke-width="2" stroke-miterlimit="10"/>
<path d="M113.061 18.8135L125.191 11.0331C123.399 8.243 120.701 6.15446 117.551 5.11816L113.061 18.8135Z" fill="#1D4ED8" stroke="#334155" stroke-miterlimit="10"/>
<path d="M113.061 18.8133L119.852 31.5197C121.604 30.5805 123.143 29.2889 124.372 27.7263C125.601 26.1637 126.493 24.3638 126.992 22.4397C127.492 20.5156 127.588 18.509 127.275 16.546C126.962 14.5829 126.246 12.7059 125.172 11.033L113.061 18.8133Z" fill="#FDFEFF" stroke="#334155" stroke-miterlimit="10"/>
<path d="M182.851 45.5677C188.477 39.9411 188.477 30.8186 182.851 25.1921C177.224 19.5655 168.101 19.5655 162.475 25.1921C156.848 30.8186 156.848 39.9411 162.475 45.5677C168.101 51.1943 177.224 51.1943 182.851 45.5677Z" stroke="#334155" stroke-miterlimit="10"/>
<path d="M184.651 35.3819C184.651 42.0042 179.283 47.3726 172.66 47.3726C166.038 47.3726 160.669 42.0042 160.669 35.3819C160.669 28.7596 166.038 23.3911 172.66 23.3911C179.283 23.3911 184.651 28.7596 184.651 35.3819Z" fill="#334155" stroke="#334155"/>
<path d="M168.248 41.4994V29.2598L178.846 35.3817L168.248 41.4994Z" fill="#FDFEFF" stroke="#334155"/>
<path d="M196.694 68.2455C204.501 70.1155 209.314 77.9603 207.444 85.7673C205.574 93.5744 197.729 98.3873 189.922 96.5174C182.115 94.6474 177.302 86.8026 179.172 78.9955C181.042 71.1884 188.887 66.3755 196.694 68.2455Z" fill="#334155" stroke="#334155"/>
<path d="M195.694 72.4361C201.194 73.7484 204.588 79.2707 203.276 84.7705C201.964 90.2703 196.442 93.665 190.942 92.3527C185.442 91.0404 182.047 85.5181 183.36 80.0183C184.672 74.5185 190.194 71.1238 195.694 72.4361Z" fill="#FDFEFF" stroke="#334155"/>
<path d="M194.671 76.5952C197.866 77.3538 199.84 80.5582 199.081 83.7525C198.323 86.9467 195.118 88.9212 191.924 88.1626C188.73 87.404 186.755 84.1995 187.514 81.0053C188.273 77.811 191.477 75.8366 194.671 76.5952Z" fill="#334155" stroke="#334155"/>
<path d="M194.005 79.5085C195.6 79.8865 196.587 81.4861 196.209 83.0813C195.831 84.6765 194.231 85.6633 192.636 85.2853C191.041 84.9073 190.054 83.3077 190.432 81.7125C190.81 80.1173 192.409 79.1306 194.005 79.5085Z" fill="#FDFEFF" stroke="#334155"/>
<mask id="path-30-inside-3_136_4880" fill="white">
<path d="M212.467 75.1741L210.554 74.4289L211.389 74.0211C211.437 73.9991 211.48 73.9677 211.516 73.9287C211.552 73.8896 211.58 73.8438 211.598 73.7939C211.616 73.7439 211.624 73.6909 211.621 73.6379C211.618 73.5849 211.605 73.533 211.582 73.4852C211.559 73.4374 211.526 73.3947 211.487 73.3596C211.447 73.3246 211.4 73.2978 211.35 73.2809C211.3 73.264 211.246 73.2574 211.193 73.2614C211.141 73.2653 211.089 73.2798 211.042 73.304L210.437 73.5993L211.398 71.5183L207.831 73.1119L207.311 75.1132L193.133 82.0171C193.086 82.0401 193.043 82.0722 193.009 82.1115C192.974 82.1508 192.947 82.1966 192.93 82.2463C192.913 82.2959 192.906 82.3485 192.91 82.4008C192.913 82.4532 192.927 82.5044 192.95 82.5514C192.972 82.5989 193.003 82.6414 193.042 82.6764C193.081 82.7115 193.127 82.7383 193.176 82.7554C193.225 82.7725 193.278 82.7794 193.33 82.7757C193.382 82.7721 193.433 82.758 193.48 82.7342L207.705 75.8069L209.256 76.6833L212.467 75.1741Z"/>
</mask>
<path d="M212.467 75.1741L210.554 74.4289L211.389 74.0211C211.437 73.9991 211.48 73.9677 211.516 73.9287C211.552 73.8896 211.58 73.8438 211.598 73.7939C211.616 73.7439 211.624 73.6909 211.621 73.6379C211.618 73.5849 211.605 73.533 211.582 73.4852C211.559 73.4374 211.526 73.3947 211.487 73.3596C211.447 73.3246 211.4 73.2978 211.35 73.2809C211.3 73.264 211.246 73.2574 211.193 73.2614C211.141 73.2653 211.089 73.2798 211.042 73.304L210.437 73.5993L211.398 71.5183L207.831 73.1119L207.311 75.1132L193.133 82.0171C193.086 82.0401 193.043 82.0722 193.009 82.1115C192.974 82.1508 192.947 82.1966 192.93 82.2463C192.913 82.2959 192.906 82.3485 192.91 82.4008C192.913 82.4532 192.927 82.5044 192.95 82.5514C192.972 82.5989 193.003 82.6414 193.042 82.6764C193.081 82.7115 193.127 82.7383 193.176 82.7554C193.225 82.7725 193.278 82.7794 193.33 82.7757C193.382 82.7721 193.433 82.758 193.48 82.7342L207.705 75.8069L209.256 76.6833L212.467 75.1741Z" fill="#334155"/>
<path d="M212.467 75.1741L212.892 76.0791L215 75.0882L212.83 74.2424L212.467 75.1741ZM210.554 74.4289L210.115 73.5305L208.065 74.5323L210.191 75.3607L210.554 74.4289ZM211.389 74.0211L210.974 73.1112L210.962 73.1168L210.949 73.1227L211.389 74.0211ZM211.042 73.304L211.481 74.2026L211.489 74.1985L211.498 74.1941L211.042 73.304ZM210.437 73.5993L209.529 73.1801L208.352 75.7307L210.876 74.4979L210.437 73.5993ZM211.398 71.5183L212.306 71.9375L213.423 69.5184L210.99 70.6053L211.398 71.5183ZM207.831 73.1119L207.423 72.1989L206.984 72.395L206.863 72.8603L207.831 73.1119ZM207.311 75.1132L207.749 76.0123L208.163 75.8106L208.279 75.3648L207.311 75.1132ZM193.133 82.0171L192.695 81.118L192.695 81.1182L193.133 82.0171ZM192.95 82.5514L193.857 82.1305L193.852 82.1198L193.847 82.1092L192.95 82.5514ZM193.48 82.7342L193.042 81.8352L193.034 81.8392L193.025 81.8434L193.48 82.7342ZM207.705 75.8069L208.196 74.9362L207.739 74.6778L207.267 74.9078L207.705 75.8069ZM209.256 76.6833L208.764 77.554L209.214 77.8081L209.681 77.5883L209.256 76.6833ZM212.83 74.2424L210.917 73.4972L210.191 75.3607L212.103 76.1059L212.83 74.2424ZM210.993 75.3273L211.828 74.9196L210.949 73.1227L210.115 73.5305L210.993 75.3273ZM211.803 74.9311C211.973 74.8538 212.125 74.7434 212.252 74.6064L210.781 73.2509C210.835 73.192 210.901 73.1445 210.974 73.1112L211.803 74.9311ZM212.252 74.6064C212.378 74.4695 212.475 74.3086 212.539 74.1333L210.657 73.4544C210.685 73.379 210.727 73.3098 210.781 73.2509L212.252 74.6064ZM212.539 74.1333C212.602 73.9579 212.629 73.7718 212.62 73.5858L210.622 73.69C210.618 73.61 210.63 73.53 210.657 73.4544L212.539 74.1333ZM212.62 73.5858C212.61 73.3999 212.563 73.2177 212.482 73.0498L210.682 73.9206C210.647 73.8483 210.627 73.7698 210.622 73.69L212.62 73.5858ZM212.482 73.0498C212.401 72.882 212.287 72.7322 212.147 72.6091L210.826 74.1102C210.766 74.0573 210.717 73.9928 210.682 73.9206L212.482 73.0498ZM212.147 72.6091C212.008 72.486 211.845 72.392 211.668 72.3328L211.032 74.229C210.956 74.2035 210.886 74.1631 210.826 74.1102L212.147 72.6091ZM211.668 72.3328C211.491 72.2735 211.304 72.2502 211.119 72.2642L211.268 74.2586C211.188 74.2646 211.108 74.2545 211.032 74.229L211.668 72.3328ZM211.119 72.2642C210.933 72.2781 210.752 72.329 210.586 72.414L211.498 74.1941C211.426 74.2307 211.348 74.2526 211.268 74.2586L211.119 72.2642ZM210.603 72.4055L209.998 72.7007L210.876 74.4979L211.481 74.2026L210.603 72.4055ZM211.345 74.0185L212.306 71.9375L210.49 71.0991L209.529 73.1801L211.345 74.0185ZM210.99 70.6053L207.423 72.1989L208.239 74.0249L211.806 72.4313L210.99 70.6053ZM206.863 72.8603L206.343 74.8616L208.279 75.3648L208.799 73.3635L206.863 72.8603ZM206.873 74.2141L192.695 81.118L193.571 82.9162L207.749 76.0123L206.873 74.2141ZM192.695 81.1182C192.529 81.1989 192.381 81.3115 192.259 81.4495L193.758 82.7735C193.706 82.8329 193.642 82.8813 193.571 82.9161L192.695 81.1182ZM192.259 81.4495C192.137 81.5875 192.044 81.7483 191.984 81.9226L193.877 82.57C193.851 82.645 193.811 82.7142 193.758 82.7735L192.259 81.4495ZM191.984 81.9226C191.925 82.0969 191.9 82.2812 191.912 82.465L193.908 82.3366C193.913 82.4157 193.902 82.495 193.877 82.57L191.984 81.9226ZM191.912 82.465C191.924 82.6488 191.972 82.8284 192.053 82.9937L193.847 82.1092C193.882 82.1803 193.903 82.2576 193.908 82.3366L191.912 82.465ZM192.043 82.9724C192.122 83.1418 192.233 83.2936 192.372 83.4187L193.712 81.9342C193.773 81.9892 193.823 82.056 193.857 82.1305L192.043 82.9724ZM192.372 83.4187C192.511 83.5439 192.673 83.6398 192.85 83.7007L193.502 81.8101C193.58 81.8369 193.651 81.8791 193.712 81.9342L192.372 83.4187ZM192.85 83.7007C193.026 83.7616 193.213 83.7863 193.4 83.7733L193.26 81.7782C193.342 81.7725 193.425 81.7833 193.502 81.8101L192.85 83.7007ZM193.4 83.7733C193.586 83.7603 193.768 83.7099 193.934 83.625L193.025 81.8434C193.098 81.8061 193.178 81.7839 193.26 81.7782L193.4 83.7733ZM193.917 83.6333L208.142 76.7059L207.267 74.9078L193.042 81.8352L193.917 83.6333ZM207.213 76.6775L208.764 77.554L209.748 75.8127L208.196 74.9362L207.213 76.6775ZM209.681 77.5883L212.892 76.0791L212.041 74.2691L208.831 75.7783L209.681 77.5883Z" fill="#334155" mask="url(#path-30-inside-3_136_4880)"/>
<path d="M50.5648 49.7849C58.8662 49.7849 65.5959 43.0552 65.5959 34.7538C65.5959 26.4523 58.8662 19.7227 50.5648 19.7227C42.2633 19.7227 35.5337 26.4523 35.5337 34.7538C35.5337 43.0552 42.2633 49.7849 50.5648 49.7849Z" fill="#FDFEFF" stroke="#334155" stroke-width="2" stroke-miterlimit="10"/>
<path d="M50.5647 49.7849C56.5857 49.7849 61.4666 43.0552 61.4666 34.7538C61.4666 26.4523 56.5857 19.7227 50.5647 19.7227C44.5438 19.7227 39.6628 26.4523 39.6628 34.7538C39.6628 43.0552 44.5438 49.7849 50.5647 49.7849Z" fill="#FDFEFF" stroke="#334155" stroke-miterlimit="10"/>
<path d="M50.5647 49.7849C53.1273 49.7849 55.2048 43.0552 55.2048 34.7538C55.2048 26.4523 53.1273 19.7227 50.5647 19.7227C48.002 19.7227 45.9246 26.4523 45.9246 34.7538C45.9246 43.0552 48.002 49.7849 50.5647 49.7849Z" fill="#FDFEFF" stroke="#334155" stroke-miterlimit="10"/>
<path d="M42.6016 22.0566H58.795" stroke="#334155" stroke-miterlimit="10"/>
<path d="M37.1553 27.9482H63.9507" stroke="#334155" stroke-miterlimit="10"/>
<path d="M35.6086 33.8352H65.5677" stroke="#334155" stroke-miterlimit="10"/>
<path d="M36.2695 39.7266H64.6866" stroke="#334155" stroke-miterlimit="10"/>
<path d="M40.3191 45.6135H61.0777" stroke="#334155" stroke-miterlimit="10"/>
<path d="M30.8888 97.4184C39.1902 97.4184 45.9199 90.6887 45.9199 82.3873C45.9199 74.0859 39.1902 67.3562 30.8888 67.3562C22.5873 67.3562 15.8577 74.0859 15.8577 82.3873C15.8577 90.6887 22.5873 97.4184 30.8888 97.4184Z" fill="#334155" stroke="#334155" stroke-width="2" stroke-miterlimit="10"/>
<path d="M40.4127 75.282H20.479V91.2317H40.4127V75.282Z" fill="#FDFEFF" stroke="#334155" stroke-width="2" stroke-miterlimit="10"/>
<path d="M41.6593 75.282H19.2322V81.7594H41.6593V75.282Z" fill="#FDFEFF" stroke="#334155" stroke-width="2" stroke-miterlimit="10"/>
<path d="M27.6187 72.7554C28.2124 73.3806 28.7849 74.0139 29.2252 74.5097C28.6856 74.4579 28.0194 74.3913 27.3275 74.3161C26.5053 74.2267 25.6502 74.1255 24.9295 74.0225C24.1999 73.9182 23.6546 73.8182 23.4071 73.7373C23.3936 73.7026 23.3769 73.6164 23.3933 73.4567C23.4261 73.1371 23.5725 72.6948 23.7984 72.2171C24.0206 71.7474 24.301 71.2825 24.5682 70.9252C24.7021 70.7462 24.8262 70.6029 24.9315 70.5017C24.9739 70.461 25.008 70.4323 25.0337 70.4124C25.062 70.4262 25.0979 70.4457 25.1421 70.4726C25.312 70.5763 25.5365 70.7482 25.805 70.9805C26.3383 71.4419 26.9859 72.0892 27.6187 72.7554ZM24.9618 70.3836C24.9618 70.3835 24.9637 70.3839 24.9677 70.385C24.9639 70.3844 24.9619 70.3838 24.9618 70.3836Z" fill="#1D4ED8" stroke="#334155"/>
<path d="M31.6667 74.5098C32.1069 74.014 32.6795 73.3806 33.2733 72.7554C33.906 72.0892 34.5536 71.4419 35.0869 70.9805C35.3554 70.7482 35.58 70.5763 35.7499 70.4726C35.7941 70.4457 35.83 70.4262 35.8583 70.4124C35.8841 70.4323 35.9182 70.461 35.9608 70.5019C36.0663 70.6031 36.1906 70.7465 36.3247 70.9254C36.5924 71.2828 36.8734 71.7478 37.0961 72.2176C37.3226 72.6952 37.4695 73.1376 37.5027 73.4573C37.5192 73.6165 37.5027 73.7026 37.4893 73.7373C37.2417 73.8183 36.6963 73.9183 35.9664 74.0225C35.2453 74.1255 34.3896 74.2267 33.5668 74.3161C32.874 74.3914 32.2069 74.458 31.6667 74.5098ZM35.9301 70.3836C35.9301 70.3838 35.928 70.3844 35.9242 70.385C35.9283 70.3839 35.9302 70.3835 35.9301 70.3836Z" fill="#1D4ED8" stroke="#334155"/>
<path d="M30.0234 83.7855L29.4905 84.6789V76.0161H31.3636V84.6218L30.8862 83.7923L30.4606 83.0528L30.0234 83.7855Z" fill="#1D4ED8" stroke="#334155"/>
<path d="M37.5442 123.797L112.133 81.8154L188.549 123.797V184.657H38.4628L37.5442 123.797Z" fill="#334155" stroke="#334155" stroke-linecap="round" stroke-linejoin="round"/>
<path d="M168.878 93.1392H57.2249V192.437H168.878V93.1392Z" fill="#FDFEFF" stroke="#334155" stroke-miterlimit="10"/>
<path d="M70.0344 110.528H154.69" stroke="#334155" stroke-miterlimit="10"/>
<path d="M70.0344 119.222H154.69" stroke="#334155" stroke-miterlimit="10"/>
<path d="M70.0344 127.916H154.69" stroke="#334155" stroke-miterlimit="10"/>
<path d="M70.0344 136.611H154.69" stroke="#334155" stroke-miterlimit="10"/>
<path d="M70.0344 145.305H154.69" stroke="#334155" stroke-miterlimit="10"/>
<path d="M70.0344 154H154.69" stroke="#334155" stroke-miterlimit="10"/>
<path d="M188.549 207.538H37.5442V123.796L113.051 175.048L188.549 123.796V207.538Z" fill="#1D4ED8" stroke="#334155" stroke-miterlimit="10"/>
<path d="M37.5442 207.538L92.4473 161.039" stroke="#334155" stroke-miterlimit="10"/>
<path d="M188.31 207.539L133.815 160.964" stroke="#334155" stroke-miterlimit="10"/>
<path d="M9.38501 207.539H215.762" stroke="#334155" stroke-miterlimit="10"/>
</svg>
