<svg width="25" height="24" viewBox="0 0 25 24" fill="none" xmlns="http://www.w3.org/2000/svg">
<path d="M20.5187 9.74934C20.5187 9.55043 20.4397 9.35966 20.299 9.21901C20.1584 9.07836 19.9676 8.99934 19.7687 8.99934C19.5698 8.99934 19.379 9.07836 19.2384 9.21901C19.0977 9.35966 19.0187 9.55043 19.0187 9.74934H20.5187ZM6.51871 9.74934C6.51871 9.55043 6.43969 9.35966 6.29904 9.21901C6.15839 9.07836 5.96762 8.99934 5.76871 8.99934C5.5698 8.99934 5.37903 9.07836 5.23838 9.21901C5.09773 9.35966 5.01871 9.55043 5.01871 9.74934H6.51871ZM21.2387 12.2793C21.3074 12.353 21.3902 12.4121 21.4822 12.4531C21.5742 12.4941 21.6735 12.5162 21.7742 12.5179C21.8749 12.5197 21.9749 12.5012 22.0683 12.4635C22.1617 12.4257 22.2465 12.3696 22.3177 12.2984C22.389 12.2272 22.4451 12.1423 22.4828 12.0489C22.5206 11.9555 22.5391 11.8555 22.5373 11.7548C22.5355 11.6541 22.5135 11.5548 22.4725 11.4628C22.4315 11.3708 22.3724 11.288 22.2987 11.2193L21.2387 12.2793ZM12.7687 2.74934L13.2987 2.21934C13.1581 2.07889 12.9675 2 12.7687 2C12.57 2 12.3793 2.07889 12.2387 2.21934L12.7687 2.74934ZM3.23871 11.2193C3.16502 11.288 3.10592 11.3708 3.06493 11.4628C3.02394 11.5548 3.00189 11.6541 3.00012 11.7548C2.99834 11.8555 3.01686 11.9555 3.05459 12.0489C3.09231 12.1423 3.14845 12.2272 3.21967 12.2984C3.29089 12.3696 3.37572 12.4257 3.46911 12.4635C3.5625 12.5012 3.66253 12.5197 3.76323 12.5179C3.86393 12.5162 3.96325 12.4941 4.05525 12.4531C4.14725 12.4121 4.23005 12.353 4.29871 12.2793L3.23871 11.2193ZM7.76871 21.4993H17.7687V19.9993H7.76871V21.4993ZM20.5187 18.7493V9.74934H19.0187V18.7493H20.5187ZM6.51871 18.7493V9.74934H5.01871V18.7493H6.51871ZM22.2987 11.2193L13.2987 2.21934L12.2387 3.27934L21.2387 12.2793L22.2987 11.2193ZM12.2387 2.21934L3.23871 11.2193L4.29871 12.2793L13.2987 3.27934L12.2387 2.21934ZM17.7687 21.4993C18.4981 21.4993 19.1975 21.2096 19.7133 20.6939C20.229 20.1782 20.5187 19.4787 20.5187 18.7493H19.0187C19.0187 19.4393 18.4587 19.9993 17.7687 19.9993V21.4993ZM7.76871 19.9993C7.07871 19.9993 6.51871 19.4393 6.51871 18.7493H5.01871C5.01871 19.4787 5.30844 20.1782 5.82416 20.6939C6.33989 21.2096 7.03936 21.4993 7.76871 21.4993V19.9993Z" fill="#334155"/>
</svg>
