<svg width="25" height="24" viewBox="0 0 25 24" fill="none" xmlns="http://www.w3.org/2000/svg">
<path d="M13.2502 7C13.2502 6.80109 13.1711 6.61032 13.0305 6.46967C12.8898 6.32902 12.6991 6.25 12.5002 6.25C12.3012 6.25 12.1105 6.32902 11.9698 6.46967C11.8292 6.61032 11.7502 6.80109 11.7502 7V11.19L11.0302 10.47C10.9615 10.3963 10.8787 10.3372 10.7867 10.2962C10.6947 10.2552 10.5954 10.2332 10.4947 10.2314C10.394 10.2296 10.2939 10.2482 10.2006 10.2859C10.1072 10.3236 10.0223 10.3797 9.95112 10.451C9.8799 10.5222 9.82375 10.607 9.78603 10.7004C9.74831 10.7938 9.72979 10.8938 9.73156 10.9945C9.73334 11.0952 9.75538 11.1945 9.79637 11.2865C9.83736 11.3785 9.89647 11.4613 9.97015 11.53L11.9702 13.53C12.1108 13.6705 12.3014 13.7493 12.5002 13.7493C12.6989 13.7493 12.8895 13.6705 13.0302 13.53L15.0302 11.53C15.1038 11.4613 15.1629 11.3785 15.2039 11.2865C15.2449 11.1945 15.267 11.0952 15.2687 10.9945C15.2705 10.8938 15.252 10.7938 15.2143 10.7004C15.1766 10.607 15.1204 10.5222 15.0492 10.451C14.978 10.3797 14.8931 10.3236 14.7998 10.2859C14.7064 10.2482 14.6063 10.2296 14.5056 10.2314C14.4049 10.2332 14.3056 10.2552 14.2136 10.2962C14.1216 10.3372 14.0388 10.3963 13.9702 10.47L13.2502 11.19V7Z" fill="#334155"/>
<path d="M3.95082 10.1891C3.77477 10.8256 3.70683 11.4871 3.74982 12.1461C3.74982 12.9991 3.75182 14.3531 3.79082 15.5941C3.81082 16.2501 3.84282 16.8851 3.89082 17.4031C3.91482 17.6611 3.94382 17.9011 3.98082 18.1051C4.01145 18.3119 4.07138 18.5132 4.15882 18.7031C4.51854 19.4084 5.09227 19.9818 5.79782 20.3411C6.24182 20.5681 6.72182 20.6621 7.26782 20.7071C7.79882 20.7501 8.45482 20.7501 9.26782 20.7501H15.7318C16.5448 20.7501 17.2008 20.7501 17.7318 20.7071C18.2778 20.6621 18.7578 20.5671 19.2018 20.3411C19.9079 19.9817 20.482 19.408 20.8418 18.7021C20.9358 18.5161 20.9868 18.2871 21.0188 18.1051C21.0558 17.9011 21.0848 17.6611 21.1088 17.4031C21.1568 16.8851 21.1888 16.2501 21.2088 15.5931C21.2478 14.3481 21.2488 12.9871 21.2498 12.1341C21.2911 11.4791 21.2229 10.8217 21.0478 10.1891L20.2158 7.27511L20.1558 7.06611C19.8118 5.84311 19.3558 4.22311 17.6548 3.52811C16.9708 3.24911 16.1808 3.24911 15.0348 3.25011H9.96482C8.81882 3.25011 8.02982 3.24911 7.34482 3.52811C5.64382 4.22311 5.18782 5.84311 4.84382 7.06611L4.78382 7.27611L3.95082 10.1891ZM10.1208 4.75011H14.8788C16.2438 4.75011 16.7118 4.76411 17.0868 4.91711C18.0938 5.32811 18.3638 6.25411 18.7728 7.68711L19.6058 10.6011C19.7308 11.0391 19.7788 11.5241 19.7558 12.0001H19.7498V12.0861L19.7398 12.2181C19.6892 12.7371 19.4599 13.2224 19.0911 13.591C18.7222 13.9596 18.2368 14.1887 17.7178 14.2391C17.5197 14.257 17.3208 14.265 17.1218 14.2631H17.0758C16.8934 14.2567 16.7108 14.2687 16.5308 14.2991C16.0418 14.3991 15.6188 14.7041 15.3678 15.1361C15.2778 15.2931 15.2198 15.4661 15.1658 15.6281L15.1528 15.6681C15.0328 16.0261 14.9418 16.1201 14.8958 16.1541C14.8518 16.1861 14.7328 16.2501 14.3458 16.2501H10.6528C10.2768 16.2501 10.1578 16.1921 10.1108 16.1601C10.0668 16.1291 9.96882 16.0361 9.84682 15.6691L9.83282 15.6291C9.78255 15.4583 9.71486 15.2931 9.63082 15.1361C9.507 14.9224 9.33936 14.7374 9.13891 14.5931C8.93847 14.4489 8.70976 14.3487 8.46782 14.2991C8.28784 14.2687 8.10524 14.2567 7.92282 14.2631H7.87782C7.67888 14.265 7.47997 14.257 7.28182 14.2391C6.74162 14.187 6.23845 13.9415 5.86503 13.5476C5.49162 13.1538 5.27313 12.6383 5.24982 12.0961V12.0001H5.24382C5.21835 11.5284 5.269 11.0557 5.39382 10.6001L6.22582 7.68711C6.63582 6.25411 6.90582 5.32811 7.91182 4.91711C8.28782 4.76411 8.75482 4.75011 10.1198 4.75011M5.28982 15.5471L5.27482 15.0201C5.81907 15.4212 6.46187 15.6673 7.13482 15.7321C7.38982 15.7571 7.63982 15.7641 7.87782 15.7631C7.97418 15.7628 8.07053 15.7645 8.16682 15.7681C8.20122 15.7754 8.23369 15.7898 8.26212 15.8105C8.29055 15.8312 8.3143 15.8576 8.33182 15.8881L8.34882 15.9301C8.36582 15.9761 8.38682 16.0361 8.42182 16.1431C8.58382 16.6281 8.81582 17.0831 9.24582 17.3851C9.67282 17.6871 10.1708 17.7501 10.6518 17.7501H14.3448C14.8568 17.7501 15.3608 17.6741 15.7848 17.3621C16.2048 17.0521 16.4228 16.5991 16.5748 16.1431C16.6108 16.0361 16.6308 15.9751 16.6478 15.9301C16.6628 15.8901 16.6678 15.8841 16.6648 15.8881C16.6823 15.8576 16.7061 15.8312 16.7345 15.8105C16.763 15.7898 16.7954 15.7754 16.8298 15.7681L16.8798 15.7651C16.9318 15.7631 17.0008 15.7631 17.1198 15.7631C17.3568 15.7631 17.6068 15.7571 17.8618 15.7331C18.535 15.6677 19.1778 15.4209 19.7218 15.0191C19.7185 15.1971 19.7138 15.3731 19.7078 15.5471C19.6878 16.1911 19.6578 16.7911 19.6138 17.2641C19.5978 17.4574 19.5738 17.6499 19.5418 17.8411C19.5308 17.9037 19.5168 17.9658 19.4998 18.0271C19.2841 18.448 18.9412 18.7902 18.5198 19.0051C18.3228 19.1051 18.0618 19.1751 17.6078 19.2121C17.1458 19.2491 16.5508 19.2501 15.6988 19.2501H9.29982C8.44782 19.2501 7.85282 19.2501 7.38982 19.2121C6.93682 19.1741 6.67582 19.1051 6.47882 19.0051C6.05524 18.7896 5.71077 18.4455 5.49482 18.0221L5.49882 18.0291L5.49682 18.0211C5.48073 17.9618 5.46738 17.9017 5.45682 17.8411C5.42484 17.6499 5.40082 17.4574 5.38482 17.2641C5.33676 16.6928 5.30508 16.1202 5.28982 15.5471Z" fill="#334155"/>
</svg>
