<svg width="20" height="16" viewBox="0 0 20 16" fill="none" xmlns="http://www.w3.org/2000/svg">
<path d="M14.7618 11.5712L18.5713 7.99979M18.5713 7.99979L14.7618 4.42836M18.5713 7.99979H5.23799M10.9523 11.5712V12.4641C10.9523 13.1745 10.6513 13.8558 10.1154 14.3581C9.57962 14.8604 8.85289 15.1426 8.09513 15.1426H4.28561C3.52785 15.1426 2.80112 14.8604 2.2653 14.3581C1.72949 13.8558 1.42847 13.1745 1.42847 12.4641V3.5355C1.42847 2.8251 1.72949 2.1438 2.2653 1.64147C2.80112 1.13914 3.52785 0.856934 4.28561 0.856934H8.09513C8.85289 0.856934 9.57962 1.13914 10.1154 1.64147C10.6513 2.1438 10.9523 2.8251 10.9523 3.5355V4.42836" stroke="#334155" stroke-linecap="round" stroke-linejoin="round"/>
</svg>
