<svg width="18" height="18" viewBox="0 0 18 18" fill="none" xmlns="http://www.w3.org/2000/svg">
<path d="M17.3363 10.2088L12.5705 8.49594C12.5269 8.48025 12.4884 8.45271 12.4595 8.41642L10.4838 5.93569C10.3081 5.72094 10.0869 5.54799 9.83605 5.4294C9.58524 5.31081 9.31118 5.24955 9.03375 5.25006H4.03625C3.73062 5.25007 3.42963 5.32478 3.15948 5.4677C2.88933 5.61062 2.65822 5.81741 2.48625 6.07006L0.79125 8.55944C0.438644 9.07772 0.25006 9.69008 0.25 10.3169V15.2501C0.25 15.4158 0.315848 15.5748 0.433058 15.692C0.550268 15.8092 0.70924 15.8751 0.875 15.8751H2.01921C2.13362 15.8751 2.23218 15.9532 2.26887 16.0616C2.42455 16.5214 2.71198 16.9272 3.09736 17.227C3.53408 17.5669 4.07164 17.7514 4.625 17.7514C5.17836 17.7514 5.71592 17.5669 6.15264 17.227C6.53802 16.9272 6.82545 16.5214 6.98113 16.0616C7.01782 15.9532 7.11638 15.8751 7.23079 15.8751H10.7692C10.8836 15.8751 10.9822 15.9532 11.0189 16.0616C11.1745 16.5214 11.462 16.9272 11.8474 17.227C12.2841 17.5669 12.8216 17.7514 13.375 17.7514C13.9284 17.7514 14.4659 17.5669 14.9026 17.227C15.288 16.9272 15.5755 16.5214 15.7311 16.0616C15.7678 15.9532 15.8664 15.8751 15.9808 15.8751H17.125C17.2908 15.8751 17.4497 15.8092 17.5669 15.692C17.6842 15.5748 17.75 15.4158 17.75 15.2501V10.7969C17.75 10.6682 17.7102 10.5427 17.6362 10.4374C17.5621 10.3321 17.4574 10.2523 17.3363 10.2088ZM4.625 16.5001C4.37777 16.5001 4.1361 16.4268 3.93054 16.2894C3.72498 16.152 3.56476 15.9568 3.47015 15.7284C3.37554 15.5 3.35079 15.2487 3.39902 15.0062C3.44725 14.7637 3.5663 14.541 3.74112 14.3662C3.91593 14.1914 4.13866 14.0723 4.38114 14.0241C4.62361 13.9758 4.87495 14.0006 5.10335 14.0952C5.33176 14.1898 5.52699 14.35 5.66434 14.5556C5.80169 14.7612 5.875 15.0028 5.875 15.2501C5.8745 15.5814 5.74265 15.8991 5.50834 16.1334C5.27402 16.3677 4.95637 16.4996 4.625 16.5001ZM13.375 16.5001C13.1278 16.5001 12.8861 16.4268 12.6805 16.2894C12.475 16.152 12.3148 15.9568 12.2201 15.7284C12.1255 15.5 12.1008 15.2487 12.149 15.0062C12.1972 14.7637 12.3163 14.541 12.4911 14.3662C12.6659 14.1914 12.8887 14.0723 13.1311 14.0241C13.3736 13.9758 13.6249 14.0006 13.8534 14.0952C14.0818 14.1898 14.277 14.35 14.4143 14.5556C14.5517 14.7612 14.625 15.0028 14.625 15.2501C14.6245 15.5814 14.4926 15.8991 14.2583 16.1334C14.024 16.3677 13.7064 16.4996 13.375 16.5001ZM16.5 14.3751C16.5 14.5131 16.3881 14.6251 16.25 14.6251H15.9808C15.8664 14.6251 15.7678 14.5469 15.7311 14.4385C15.5755 13.9787 15.288 13.573 14.9026 13.2731C14.4659 12.9332 13.9284 12.7487 13.375 12.7487C12.8216 12.7487 12.2841 12.9332 11.8474 13.2731C11.462 13.573 11.1745 13.9787 11.0189 14.4385C10.9822 14.5469 10.8836 14.6251 10.7692 14.6251H7.23079C7.11638 14.6251 7.01782 14.5469 6.98113 14.4385C6.82545 13.9787 6.53802 13.573 6.15264 13.2731C5.71592 12.9332 5.17836 12.7487 4.625 12.7487C4.07164 12.7487 3.53408 12.9332 3.09736 13.2731C2.71198 13.573 2.42455 13.9787 2.26887 14.4385C2.23218 14.5469 2.13362 14.6251 2.01921 14.6251H1.75C1.61193 14.6251 1.5 14.5131 1.5 14.3751V10.3169C1.50001 9.94062 1.61325 9.57302 1.825 9.26194L3.51937 6.77381C3.57667 6.68949 3.65372 6.62046 3.74381 6.57274C3.83391 6.52503 3.9343 6.50008 4.03625 6.50006H9.03375C9.12469 6.50008 9.21453 6.51994 9.297 6.55826C9.37948 6.59658 9.45259 6.65244 9.51125 6.72194L11.6363 9.38944C11.7085 9.48015 11.8046 9.54897 11.9138 9.58819L16.3345 11.1769C16.4338 11.2125 16.5 11.3067 16.5 11.4121V14.3751ZM14.3469 2.75006C14.3469 2.41854 14.4786 2.1006 14.713 1.86618C14.9474 1.63176 15.2654 1.50006 15.5969 1.50006H17.3186C17.5107 1.50006 17.6271 1.29388 17.5042 1.14621C17.2821 0.879206 17.0054 0.66046 16.6908 0.505728C16.2466 0.287185 15.7473 0.206305 15.2568 0.273458C14.7663 0.340611 14.307 0.552737 13.9379 0.882636C13.6173 1.1692 13.3773 1.53329 13.2401 1.93853C13.2034 2.0469 13.1049 2.12506 12.9904 2.12506H9.25C9.11193 2.12506 9 2.23699 9 2.37506V3.12506C9 3.26313 9.11193 3.37506 9.25 3.37506H12.9904C13.1049 3.37506 13.2034 3.45322 13.2401 3.5616C13.3773 3.96684 13.6173 4.33092 13.9379 4.61749C14.307 4.94739 14.7663 5.15951 15.2568 5.22667C15.7473 5.29382 16.2466 5.21294 16.6908 4.9944C17.0054 4.83966 17.2821 4.62092 17.5042 4.35391C17.6271 4.20625 17.5107 4.00006 17.3186 4.00006H15.5969C15.2654 4.00006 14.9474 3.86837 14.713 3.63395C14.4786 3.39953 14.3469 3.08158 14.3469 2.75006Z" fill="#334155" stroke="#334155" stroke-width="0.25"/>
</svg>
