<svg width="121" height="90" viewBox="0 0 121 90" fill="none" xmlns="http://www.w3.org/2000/svg">
<g clip-path="url(#clip0_1333_5003)">
<path d="M12.1868 57.9633C10.8845 57.139 9.57415 56.3227 8.26383 55.4983C7.48406 55.0053 6.69626 54.5123 5.9165 54.0193C5.73964 53.9062 5.57083 53.8011 5.39397 53.688C5.39397 53.688 5.39397 53.688 5.39397 53.6961C5.16085 54.0113 4.80714 54.181 4.38912 54.181H0.184832C0.0562115 54.3588 0.00797872 55.167 0.00797872 55.3044C-0.0322153 56.9207 0.980673 61.3577 4.18815 63.6772C5.77984 64.8248 9.96001 65.9806 11.0051 65.9806C10.3378 63.2731 10.7719 60.3556 12.1868 57.9633Z" fill="#1D4ED8" fill-opacity="0.2"/>
<path d="M116.482 45.8731C116.265 46.3741 116.386 47.74 116.386 48.5158C116.386 49.4453 116.555 50.4474 117.736 50.4474C118.564 50.4474 119.392 50.4474 120.22 50.4474C119.81 48.6613 119.409 46.8752 118.999 45.0891C118.122 45.0891 116.884 44.9356 116.482 45.8731Z" fill="#1D4ED8" fill-opacity="0.2"/>
<path d="M4.35699 53.8496C5.28949 53.8496 5.47439 52.8232 5.26538 52.0877C4.98402 51.0856 4.70266 50.0753 4.41326 49.0732C4.22837 48.4266 3.86663 47.8528 3.19941 47.6265C2.72512 47.4649 2.76531 47.5538 2.60453 47.9498C1.84085 49.9137 1.07716 51.8776 0.313477 53.8496C1.2299 53.8496 2.14632 53.8496 3.06275 53.8496C3.49684 53.8496 3.93094 53.8496 4.35699 53.8496Z" fill="#1D4ED8" fill-opacity="0.2"/>
<path d="M109.239 28.4079C110.131 29.903 111.024 31.3982 111.916 32.8933C112.776 34.34 113.636 35.7786 114.497 37.2252C115.14 38.3082 115.863 39.868 117.447 39.2861C114.818 34.9623 112.189 30.6385 109.569 26.3147C109.279 25.8378 108.95 25.3853 108.58 24.965C107.631 26.153 108.612 27.3653 109.239 28.4079Z" fill="#1D4ED8" fill-opacity="0.2"/>
<path d="M3.32788 47.3115C4.03529 47.5459 4.51762 48.1116 4.75878 48.9844L5.6109 51.999C5.72344 52.3869 5.76363 52.9688 5.54658 53.4376C5.69932 53.5346 5.85206 53.6315 6.0048 53.7285C6.77652 54.2134 7.54021 54.6903 8.31193 55.1752C9.66245 56.0238 10.8442 56.735 12.3474 57.7129C12.6127 57.1957 13.5211 56.1773 13.6417 56.048C14.2124 55.45 14.8555 54.9085 15.5549 54.4559C16.9215 53.5669 18.4971 52.9931 20.1209 52.8072C23.449 52.4273 26.8173 53.6639 29.1083 56.1208C31.5441 58.7312 32.5328 62.4974 31.6727 65.9807H34.6631L60.0416 40.4661C56.5689 40.5469 53.088 40.6197 49.6072 40.7005C48.5542 40.7247 47.5091 40.749 46.456 40.7732C46.2229 40.7813 46.3113 40.6358 46.3033 40.4096C46.2872 39.6499 46.2711 38.8982 46.2551 38.1466C46.2068 36.0938 46.1586 34.0329 46.1104 31.9721C46.1023 31.5275 46.0863 31.083 46.0782 30.6305C46.0782 30.4769 46.8982 29.9273 47.0348 29.8142C47.4207 29.4909 47.8066 29.1676 48.1924 28.8444C49.0445 28.1412 49.9047 27.4462 50.7648 26.7592C52.1234 25.6763 53.691 24.3832 55.363 23.8174C56.9306 23.2921 58.6027 23.3163 60.2426 23.2274C63.9726 23.0254 67.7026 22.9122 71.4326 22.8638C71.1834 25.159 70.9422 27.4543 70.693 29.7495L75.6047 24.8115C75.653 24.3347 75.7092 23.8659 75.7575 23.3891C75.8057 22.9446 75.6932 22.8395 76.1594 22.8395C76.6257 22.8395 77.0999 22.8395 77.5662 22.8395L79.592 20.8029C72.5419 20.7867 65.4919 21.0857 58.458 21.6111C56.7939 21.7323 55.0656 21.8939 53.49 22.4839C52.4691 22.8638 51.7295 23.5184 50.8774 24.173C50.0494 24.8115 49.2214 25.45 48.4014 26.0965C45.1377 28.6261 41.882 31.1558 38.6182 33.6773C37.0185 34.9139 35.3946 36.5545 33.385 37.0394C30.2579 37.791 27.1388 38.5507 24.0117 39.3023C19.9441 40.2883 15.8764 41.2662 11.8088 42.2441C10.5146 42.5593 9.22032 42.8745 7.91803 43.1816C6.63986 43.4888 5.426 43.8524 4.43723 44.7899C3.71374 45.485 3.24749 46.3093 2.88574 47.2226H2.89378C3.03044 47.2145 3.15906 47.2549 3.32788 47.3115ZM39.2452 36.902C41.054 35.124 42.919 33.4025 44.8242 31.7296C44.8965 34.7522 44.9608 37.7749 45.0332 40.7975C43.554 40.8298 42.0749 40.8621 40.6038 40.8945C39.7195 40.8945 38.9076 40.3449 38.57 39.5286C38.152 38.5426 38.5217 37.6051 39.2452 36.902Z" fill="#1D4ED8" fill-opacity="0.2"/>
<path d="M98.3307 52.7829C100.107 52.6294 101.924 52.9284 103.556 53.6477C103.781 53.7447 105.091 54.4559 105.091 54.4559C105.236 54.3912 105.381 54.3185 105.533 54.2539C107.157 53.5103 108.781 52.7668 110.405 52.0152C112.294 51.1504 114.183 50.2776 116.072 49.4128C116 49.0572 116 48.7178 116 48.5238C116 48.3379 115.992 48.1197 115.984 47.8853C115.952 46.8912 115.944 46.1477 116.129 45.7275C116.571 44.7011 117.744 44.7011 118.299 44.7011C118.428 44.7011 118.548 44.7011 118.669 44.7091C118.749 44.7091 118.822 44.7091 118.894 44.7091C118.572 43.2867 118.251 41.8724 117.921 40.45C117.873 40.1348 117.744 39.5125 117.399 39.6175C117.037 39.7226 116.635 39.7226 116.265 39.6256C115.711 39.4802 115.252 39.1165 114.963 38.6235C114.746 38.2598 114.529 37.8961 114.312 37.5324C113.307 35.8514 112.302 34.1703 111.297 32.4812C110.373 30.9376 109.448 29.3859 108.524 27.8422C108.259 27.3977 107.953 26.9613 107.881 26.436C107.825 26.0238 107.881 25.6035 108.05 25.2237C108.13 25.0459 108.226 24.8842 108.355 24.7388C108.21 24.5852 108.066 24.4317 107.913 24.2943C107.254 23.672 106.506 23.1466 105.694 22.7425C103.982 21.8778 102.238 21.7808 100.365 21.6515C98.2584 21.4979 96.1441 21.3605 94.0299 21.2474C93.6119 21.2231 93.2019 21.1989 92.7839 21.1827L90.8064 23.1709C92.0042 23.2194 93.202 23.2679 94.3997 23.3164C96.2969 23.3972 98.3789 23.2194 100.123 24.1165C100.774 24.4478 100.686 24.4882 100.694 25.1348C100.734 26.8562 100.774 28.5777 100.815 30.291C100.831 30.9133 101.04 39.4559 101.016 39.4559C98.6362 39.5206 96.2647 39.5771 93.8852 39.6418C87.2372 39.8115 80.5971 39.9893 73.949 40.159H73.9571C73.9571 40.1429 73.9571 40.1267 73.9651 40.1186L48.2329 65.9807H88.9333C87.3979 59.7011 91.9318 53.3325 98.3307 52.7829ZM106.514 32.2711C107.069 33.1844 107.599 34.1057 108.106 35.0513C108.644 36.0534 109.288 37.1283 108.661 38.2436C108.653 38.2517 108.653 38.2598 108.644 38.2679C108.636 38.2759 108.636 38.2759 108.628 38.284C108.62 38.3002 108.612 38.3164 108.596 38.3325C108.596 38.3325 108.596 38.3325 108.588 38.3406C107.993 39.2781 107.029 39.3185 106.04 39.3428C105.035 39.367 104.03 39.3913 103.025 39.4074C102.648 39.4155 102.318 39.5933 102.31 39.1892C102.294 38.6073 102.286 38.0335 102.27 37.4516C102.181 33.6773 102.093 29.9112 102.012 26.1369C102.012 25.9511 102.004 25.7571 101.996 25.5712C103.725 27.5836 105.14 30.0082 106.514 32.2711Z" fill="#1D4ED8" fill-opacity="0.2"/>
<path d="M120.59 52.1364C120.502 51.7485 120.421 51.3606 120.333 50.9807C120.317 50.9161 120.276 50.8676 120.228 50.8272H117.728C116.764 50.8272 116.337 50.2857 116.153 49.7038C112.551 51.3525 108.95 53.0093 105.356 54.658C108.797 57.0745 110.533 61.4225 109.689 65.5605C110.767 65.1079 117.286 64.7685 119.73 60.1618C121.531 56.7755 121.016 53.9064 120.59 52.1364Z" fill="#1D4ED8" fill-opacity="0.2"/>
<path d="M99.2632 54.0277C94.0942 54.0277 89.8979 58.2384 89.8979 63.435C89.8979 68.6317 94.0942 72.8424 99.2632 72.8424C104.432 72.8424 108.628 68.6317 108.628 63.435C108.62 58.2384 104.432 54.0277 99.2632 54.0277ZM101.418 58.3434C102.326 58.7314 103.106 59.3537 103.684 60.1376C102.447 60.1376 101.538 60.4367 100.807 60.8892C100.565 60.7438 100.3 60.6387 100.035 60.566C100.228 59.8063 100.654 59.0708 101.418 58.3434ZM95.9512 59.0142C95.9512 60.2669 96.2486 61.1883 96.7068 61.9237C96.5621 62.1743 96.4576 62.4329 96.3853 62.7077C95.6376 62.5137 94.9061 62.0854 94.1746 61.3257C94.5524 60.3962 95.1714 59.6042 95.9512 59.0142ZM94.1264 65.4313C93.8852 64.817 93.7566 64.1462 93.7566 63.4431C93.7566 63.2411 93.7726 63.039 93.7887 62.837C94.6649 63.5967 95.5331 64.025 96.3772 64.219C96.4415 64.4776 96.546 64.7362 96.6827 64.9787C96.0235 65.3504 95.2196 65.5525 94.1264 65.4313ZM97.157 68.5509C96.2566 68.1791 95.4769 67.573 94.8981 66.8052C96.12 66.789 97.0284 66.49 97.7519 66.0455C97.993 66.1829 98.2422 66.2879 98.5075 66.3607C98.3226 67.1042 97.8965 67.8316 97.157 68.5509ZM97.776 60.865C97.3981 60.1942 97.1972 59.3779 97.3258 58.2545C97.9287 58.0282 98.5799 57.8989 99.2632 57.8989C99.4882 57.8989 99.7053 57.9151 99.9223 57.9394C99.1586 58.8203 98.7326 59.7012 98.5397 60.5498C98.2663 60.6225 98.0171 60.7195 97.776 60.865ZM101.209 68.6155C100.606 68.8418 99.9464 68.9711 99.2632 68.9711C99.0622 68.9711 98.8612 68.955 98.6602 68.9388C99.3998 68.066 99.8178 67.2093 100.003 66.3688C100.26 66.3041 100.509 66.191 100.75 66.0536C101.128 66.7082 101.321 67.5164 101.209 68.6155ZM102.575 67.8558C102.559 66.6274 102.27 65.7222 101.828 64.9948C101.964 64.7524 102.077 64.5019 102.149 64.2432C102.889 64.4291 103.612 64.8575 104.328 65.6091C103.95 66.5062 103.339 67.282 102.575 67.8558ZM104.73 64.1058C103.861 63.3461 102.993 62.9178 102.149 62.7319C102.085 62.4652 101.996 62.2147 101.86 61.9803C102.519 61.6005 103.331 61.4065 104.432 61.5358C104.649 62.1339 104.77 62.7804 104.77 63.4512C104.77 63.6613 104.754 63.8876 104.73 64.1058Z" fill="#1D4ED8" fill-opacity="0.2"/>
<path d="M29.1246 68.664C30.1214 67.1689 30.7002 65.3747 30.7002 63.4431C30.7002 60.372 29.2371 57.6565 26.9782 55.935C26.9621 55.927 26.9541 55.9108 26.938 55.9027C26.8978 55.8704 26.8576 55.8461 26.8255 55.8219C25.893 55.143 24.8318 54.6258 23.6823 54.3267C23.6341 54.3187 23.5858 54.3025 23.5456 54.2944C23.4411 54.2702 23.3366 54.2459 23.2321 54.2217C23.216 54.2217 23.208 54.2217 23.1919 54.2136C22.9588 54.1651 22.7176 54.1328 22.4765 54.1004C22.1067 54.052 21.7289 54.0277 21.343 54.0277C20.8607 54.0277 20.3864 54.0681 19.9201 54.1328C19.896 54.1409 19.8639 54.1409 19.8397 54.1489C19.5021 54.2055 19.1725 54.2782 18.8429 54.3672C16.3027 55.0784 14.1965 56.8321 13.0148 59.1436C12.3556 60.4286 11.9858 61.8914 11.9858 63.435C11.9858 65.2615 12.5084 66.9668 13.4007 68.4054C15.0567 71.0724 17.9908 72.8424 21.351 72.8424C24.5826 72.8424 27.4444 71.1856 29.1246 68.664ZM24.6469 67.8558C24.6389 66.6274 24.3415 65.7222 23.8993 64.9948C24.036 64.7524 24.1485 64.5019 24.2209 64.2432C24.9605 64.4291 25.692 64.8575 26.3994 65.6091C26.0216 66.5062 25.4106 67.282 24.6469 67.8558ZM26.5039 61.5277C26.721 62.1258 26.8415 62.7723 26.8415 63.4431C26.8415 63.6694 26.8255 63.8876 26.8013 64.1139C25.9332 63.3542 25.065 62.9259 24.2209 62.74C24.1566 62.4733 24.0682 62.2228 23.9315 61.9884C24.5907 61.5924 25.4026 61.3984 26.5039 61.5277ZM23.4974 58.3434C24.4058 58.7314 25.1855 59.3537 25.7643 60.1376C24.5264 60.1376 23.618 60.4367 22.8865 60.8892C22.6372 60.7438 22.38 60.6387 22.1147 60.566C22.2996 59.8063 22.7337 59.0708 23.4974 58.3434ZM16.2464 61.3176C16.6242 60.3962 17.2432 59.6042 18.023 59.0142C18.023 60.2589 18.3204 61.1883 18.7786 61.9237C18.6339 62.1743 18.5294 62.4329 18.4571 62.7077C17.7095 62.5137 16.9699 62.0854 16.2464 61.3176ZM16.1982 65.4313C15.957 64.817 15.8284 64.1382 15.8284 63.4431C15.8284 63.2411 15.8364 63.039 15.8605 62.837C16.7368 63.5967 17.605 64.025 18.449 64.219C18.5133 64.4776 18.6178 64.7362 18.7545 64.9787C18.1034 65.3504 17.2914 65.5525 16.1982 65.4313ZM19.2288 68.5509C18.3285 68.1791 17.5487 67.573 16.9699 66.8052C18.1918 66.789 19.0921 66.49 19.8237 66.0455C20.0648 66.1829 20.314 66.2879 20.5793 66.3607C20.3944 67.1042 19.9684 67.8316 19.2288 68.5509ZM19.8478 60.865C19.47 60.1942 19.269 59.3779 19.3976 58.2545C19.7031 58.1414 20.0166 58.0525 20.3382 57.9959C20.6597 57.9393 20.9973 57.907 21.335 57.907C21.56 57.907 21.7771 57.9232 21.9941 57.9474C21.2305 58.8284 20.8044 59.7093 20.6115 60.5579C20.3462 60.6225 20.0889 60.7195 19.8478 60.865ZM21.6163 67.6457C21.8414 67.2174 21.9861 66.789 22.0826 66.3688C22.3398 66.3041 22.589 66.191 22.8302 66.0536C23.208 66.7082 23.4009 67.5164 23.2884 68.6155C22.6855 68.8418 22.0263 68.9711 21.343 68.9711C21.142 68.9711 20.9411 68.955 20.7401 68.9388C21.1018 68.5024 21.3912 68.074 21.6163 67.6457Z" fill="#1D4ED8" fill-opacity="0.2"/>
<path d="M106.096 0.978056C104.802 -0.32313 102.696 -0.32313 101.394 0.978056L18.5215 84.3024C17.8704 84.957 17.5488 85.8056 17.5488 86.6623C17.5488 87.519 17.8704 88.3757 18.5215 89.0222C19.8158 90.3234 21.9219 90.3234 23.2162 89.0222L106.096 5.70597C107.39 4.3967 107.39 2.27924 106.096 0.978056Z" fill="#1D4ED8" fill-opacity="0.4"/>
</g>
<defs>
<clipPath id="clip0_1333_5003">
<rect width="121" height="90" fill="white"/>
</clipPath>
</defs>
</svg>
