<svg width="18" height="19" viewBox="0 0 18 19" fill="none" xmlns="http://www.w3.org/2000/svg">
<path d="M16.9333 15.2498C16.9665 14.9731 16.9665 14.6933 16.9333 14.4165L17.8083 13.7332C17.8917 13.6748 17.9083 13.5832 17.8583 13.4665L17.025 12.0332C16.975 11.9415 16.8667 11.9165 16.775 11.9415L15.7333 12.3332C15.5 12.1915 15.2917 12.0498 15.0333 11.9498L14.875 10.8415C14.867 10.7922 14.8416 10.7474 14.8033 10.7153C14.7651 10.6832 14.7166 10.6659 14.6667 10.6665H13C12.9 10.6665 12.8083 10.7415 12.7917 10.8415L12.6417 11.9498C12.375 12.0498 12.1667 12.1915 11.9333 12.3332L10.9167 11.9415C10.8083 11.9165 10.6917 11.9415 10.6417 12.0332L9.80833 13.4665C9.75833 13.5832 9.78333 13.6748 9.85833 13.7332L10.7417 14.4165C10.725 14.5582 10.7083 14.6998 10.7083 14.8332C10.7083 14.9665 10.725 15.1082 10.7417 15.2498L9.85833 15.9332C9.78333 15.9915 9.75833 16.1082 9.80833 16.1998L10.6417 17.6415C10.6917 17.7498 10.8083 17.7498 10.9167 17.7498L11.9333 17.3082C12.1667 17.4748 12.375 17.6165 12.6417 17.7248L12.7917 18.8248C12.8083 18.9248 12.9 18.9998 13 18.9998H14.6667C14.775 18.9998 14.8583 18.9248 14.875 18.8248L15.0333 17.7248C15.2917 17.6165 15.5 17.4748 15.7333 17.3082L16.775 17.7498C16.8667 17.7498 16.975 17.7498 17.025 17.6415L17.8583 16.1998C17.9083 16.1082 17.8917 15.9915 17.8083 15.9332L16.9333 15.2498ZM13.8333 16.2915C13.0333 16.2915 12.375 15.6415 12.375 14.8332C12.375 14.0248 13.0333 13.3748 13.8333 13.3748C14.6333 13.3748 15.2917 14.0248 15.2917 14.8332C15.2917 15.6415 14.6417 16.2915 13.8333 16.2915ZM8.06667 15.6665H0.5V14.8332L2.16667 13.1665V8.1665C2.16667 5.58317 3.83333 3.33317 6.33333 2.58317V2.33317C6.33333 1.4165 7.08333 0.666504 8 0.666504C8.91667 0.666504 9.66667 1.4165 9.66667 2.33317V2.58317C12.1667 3.33317 13.8333 5.58317 13.8333 8.1665V8.99984C13.2583 8.99984 12.6917 9.0915 12.1667 9.2415V8.1665C12.1667 5.83317 10.3333 3.99984 8 3.99984C5.66667 3.99984 3.83333 5.83317 3.83333 8.1665V13.9998H8.06667C8.025 14.2748 8 14.5498 8 14.8332C8 15.1165 8.025 15.3915 8.06667 15.6665ZM8.25 16.4998C8.41667 16.9998 8.61667 17.4748 8.88333 17.9082C8.625 18.0665 8.325 18.1665 8 18.1665C7.08333 18.1665 6.33333 17.4165 6.33333 16.4998H8.25Z" fill="#334155"/>
</svg>
