<svg width="16" height="12" viewBox="0 0 16 12" fill="none" xmlns="http://www.w3.org/2000/svg">
<path d="M11.5 9C11.3674 9 11.2402 9.05268 11.1464 9.14645C11.0527 9.24021 11 9.36739 11 9.5C11 9.63261 11.0527 9.75979 11.1464 9.85355C11.2402 9.94732 11.3674 10 11.5 10H13.5C13.6326 10 13.7598 9.94732 13.8536 9.85355C13.9473 9.75979 14 9.63261 14 9.5C14 9.36739 13.9473 9.24021 13.8536 9.14645C13.7598 9.05268 13.6326 9 13.5 9H11.5ZM0 2.75C0 2.02065 0.289731 1.32118 0.805456 0.805456C1.32118 0.289731 2.02065 0 2.75 0H13.25C13.9793 0 14.6788 0.289731 15.1945 0.805456C15.7103 1.32118 16 2.02065 16 2.75V9.25C16 9.97935 15.7103 10.6788 15.1945 11.1945C14.6788 11.7103 13.9793 12 13.25 12H2.75C2.02065 12 1.32118 11.7103 0.805456 11.1945C0.289731 10.6788 0 9.97935 0 9.25V2.75ZM2.75 1C2.28587 1 1.84075 1.18437 1.51256 1.51256C1.18437 1.84075 1 2.28587 1 2.75V4H15V2.75C15 2.28587 14.8156 1.84075 14.4874 1.51256C14.1592 1.18437 13.7141 1 13.25 1H2.75ZM15 5H1V9.25C1 10.216 1.784 11 2.75 11H13.25C13.7141 11 14.1592 10.8156 14.4874 10.4874C14.8156 10.1592 15 9.71413 15 9.25V5Z" fill="#334155"/>
</svg>
