<svg width="18" height="16" viewBox="0 0 18 16" fill="none" xmlns="http://www.w3.org/2000/svg">
<path d="M10.6667 13.4165C10.6667 13.4165 11.5001 13.4165 12.3334 15.0832C12.3334 15.0832 14.9809 10.9165 17.3334 10.0832M3.58341 7.58317H3.57591M8.16675 14.2498H7.75008C4.61758 14.2498 3.05175 14.2498 2.00591 13.4248C1.83971 13.2932 1.68525 13.1474 1.54425 12.989C0.666748 12.0057 0.666748 10.5307 0.666748 7.58317C0.666748 4.63567 0.666748 3.1615 1.54425 2.17734C1.6848 2.01956 1.83869 1.87456 2.00591 1.74234C3.05175 0.916504 4.61758 0.916504 7.75008 0.916504H10.2501C13.3826 0.916504 14.9484 0.916504 15.9934 1.7415C16.1612 1.87484 16.3154 2.02011 16.4559 2.17734C17.2467 3.064 17.3251 4.34817 17.3334 6.74984V7.1665" stroke="#334155" stroke-width="1.25" stroke-linecap="round" stroke-linejoin="round"/>
<path d="M11.0834 7.58333C11.0834 8.13587 10.8639 8.66577 10.4732 9.05647C10.0825 9.44717 9.55262 9.66667 9.00008 9.66667C8.44755 9.66667 7.91764 9.44717 7.52694 9.05647C7.13624 8.66577 6.91675 8.13587 6.91675 7.58333C6.91675 7.0308 7.13624 6.50089 7.52694 6.11019C7.91764 5.71949 8.44755 5.5 9.00008 5.5C9.55262 5.5 10.0825 5.71949 10.4732 6.11019C10.8639 6.50089 11.0834 7.0308 11.0834 7.58333Z" stroke="#334155" stroke-width="1.25" stroke-linecap="round" stroke-linejoin="round"/>
</svg>
