<svg width="306" height="306" viewBox="0 0 306 306" fill="none" xmlns="http://www.w3.org/2000/svg">
<path fill-rule="evenodd" clip-rule="evenodd" d="M305.737 152.869C305.737 68.4416 237.296 0 152.869 0C68.4416 0 0 68.4416 0 152.869C0 237.296 68.4416 305.737 152.869 305.737C152.99 305.737 153.112 305.737 153.234 305.737H305.737V152.869Z" fill="#1D4ED8"/>
<path fill-rule="evenodd" clip-rule="evenodd" d="M152.879 48.0488C210.773 48.0488 257.703 94.9786 257.703 152.873C257.703 210.767 210.773 257.697 152.879 257.697C94.9842 257.697 48.0544 210.767 48.0544 152.873C48.0544 94.9786 94.9842 48.0488 152.879 48.0488ZM71.1682 171.846C74.8366 187.595 82.9744 201.949 94.6038 213.184C106.233 224.42 120.86 232.058 136.725 235.181C134.702 207.665 125.656 191.155 114.23 182.025C103.286 173.272 88.4432 169.886 71.1682 171.836V171.846ZM191.527 182.014C180.102 191.165 171.055 207.665 169.032 235.181C184.899 232.057 199.526 224.417 211.156 213.18C222.785 201.943 230.923 187.586 234.589 171.836C217.314 169.886 202.471 173.272 191.527 182.025V182.014ZM152.879 69.0137C133.34 69.0102 114.413 75.8297 99.3661 88.2946C84.3194 100.759 74.0977 118.087 70.4659 137.286L70.0151 139.885L93.1813 135.252C99.282 134.036 105.079 130.818 111.557 126.447L116.557 122.967C124.912 117.034 137.291 110.943 152.879 110.943C167.428 110.943 179.179 116.247 187.471 121.782L194.2 126.447C199.861 130.273 205.018 133.208 210.301 134.707L212.576 135.252L235.742 139.885C232.646 120.134 222.595 102.138 207.401 89.1437C192.208 76.1489 172.871 69.0099 152.879 69.0137Z" fill="#FFFEFE"/>
</svg>
