<svg width="20" height="16" viewBox="0 0 20 16" fill="none" xmlns="http://www.w3.org/2000/svg">
<path d="M2.14293 11.5712C2.9315 11.5712 3.5715 10.6112 3.5715 9.42836C3.5715 8.24551 2.9315 7.28551 2.14293 7.28551C1.35436 7.28551 0.714355 8.24551 0.714355 9.42836C0.714355 10.6112 1.35436 11.5712 2.14293 11.5712ZM6.42864 5.14265C7.21721 5.14265 7.85721 4.18265 7.85721 2.99979C7.85721 1.81693 7.21721 0.856934 6.42864 0.856934C5.64007 0.856934 5.00007 1.81693 5.00007 2.99979C5.00007 4.18265 5.64007 5.14265 6.42864 5.14265ZM13.5715 5.14265C14.3601 5.14265 15.0001 4.18265 15.0001 2.99979C15.0001 1.81693 14.3601 0.856934 13.5715 0.856934C12.7829 0.856934 12.1429 1.81693 12.1429 2.99979C12.1429 4.18265 12.7829 5.14265 13.5715 5.14265ZM17.8572 11.5712C18.6458 11.5712 19.2858 10.6112 19.2858 9.42836C19.2858 8.24551 18.6458 7.28551 17.8572 7.28551C17.0686 7.28551 16.4286 8.24551 16.4286 9.42836C16.4286 10.6112 17.0686 11.5712 17.8572 11.5712ZM14.2858 12.2855C14.2858 14.2569 11.9715 15.1426 10.0001 15.1426C8.02864 15.1426 5.71436 14.2569 5.71436 12.2855C5.71436 10.3141 7.14293 7.28551 10.0001 7.28551C12.8572 7.28551 14.2858 10.3141 14.2858 12.2855Z" stroke="#334155" stroke-linecap="round" stroke-linejoin="round"/>
</svg>
