<svg width="64" height="64" viewBox="0 0 64 64" fill="none" xmlns="http://www.w3.org/2000/svg">
<path d="M46.907 10.087V11.9565C46.907 13.6134 48.2501 14.9565 49.907 14.9565H51.8372M5 50.2609H22.2558M21.0233 36.8696V21.4978C21.0233 19.9022 19.7298 18.6087 18.1341 18.6087V18.6087C16.4925 18.6087 14.8974 19.1483 13.6004 20.1423C12.3034 21.1364 11.3782 22.5284 10.9705 24.0991L6.24988 42.2811C6.23838 42.3254 6.23256 42.371 6.23256 42.4168V42.4168C6.23256 42.7149 6.47422 42.9565 6.77233 42.9565H25.4186C27.0755 42.9565 28.4186 44.2997 28.4186 45.9565V46.6087C28.4186 50.2609 28.4186 52.6957 30.2674 56.3478C-nan -nan -nan -nan 34.5814 60V60M46.907 25.913C43.9649 25.913 41.1434 24.7587 39.063 22.704C36.9827 20.6492 35.814 17.8624 35.814 14.9565C35.814 12.0507 36.9827 9.26384 39.063 7.20909C41.1434 5.15434 43.9649 4 46.907 4C49.849 4 52.6706 5.15434 54.7509 7.20909C56.8313 9.26384 58 12.0507 58 14.9565C58 17.8624 56.8313 20.6492 54.7509 22.704C52.6706 24.7587 49.849 25.913 46.907 25.913ZM16.7093 8.26087C16.7093 10.7851 19.4224 12.8906 20.3482 13.5356C20.5464 13.6736 20.7814 13.7391 21.0229 13.7391V13.7391C21.2648 13.7391 21.5003 13.6733 21.6987 13.5348C22.6233 12.8888 25.3273 10.784 25.3273 8.26087C25.3273 7.70196 25.2159 7.14853 24.9993 6.63217C24.7828 6.11581 24.4654 5.64663 24.0653 5.25142C23.6651 4.85622 23.1901 4.54272 22.6673 4.32884C22.1445 4.11495 21.5842 4.00487 21.0183 4.00487C20.4525 4.00487 19.8921 4.11495 19.3693 4.32884C18.8465 4.54272 18.3715 4.85622 17.9714 5.25142C17.5713 5.64663 17.2539 6.11581 17.0373 6.63217C16.8208 7.14853 16.7093 7.70196 16.7093 8.26087Z" stroke="#FBBC05" stroke-width="4"/>
</svg>
